<svg xmlns="http://www.w3.org/2000/svg" viewBox="0 0 143 144" fill="currentcolor">
  <title>Logo</title>
  <path d="M142.737 75.2072L142.674 74.8928L142.584 74.5873C141.039 69.0627 136.637 65.6221 131.094 65.6221C128.408 65.6221 125.848 66.4486 123.71 67.3559C123.71 67.0774 123.71 66.7899 123.71 66.5115C123.71 60.6814 122.83 54.9591 121.096 49.4883C121.168 45.922 121.096 42.3197 120.89 38.7624C120.737 36.0315 120.539 32.6359 119.812 28.0814C119.03 23.3293 117.512 16.1787 113.344 8.95623C111.349 5.52466 108.663 1.83257 103.813 0.476107C102.708 0.161696 101.594 0.0089851 100.408 0.0089851C98.207 0.0089851 95.7456 0.55696 92.9069 1.67986C88.4064 3.45853 85.2353 5.83906 83.5285 7.11468L83.1781 7.3752C80.9772 9.00115 79.0908 10.5373 76.9888 12.4417C75.1832 12.2441 73.3595 12.1453 71.5449 12.1453C69.5147 12.1453 67.4755 12.271 65.4633 12.5136C63.6307 10.8427 61.7263 9.24369 59.22 7.39315L58.8607 7.12365C57.1539 5.83906 53.9739 3.45853 49.4733 1.67986C46.6256 0.547976 44.1731 0 41.9723 0C40.8044 0 39.6636 0.152716 38.6215 0.458144C33.7257 1.82359 31.0218 5.52465 29.0276 8.96521C24.8504 16.1877 23.3412 23.3383 22.5596 28.0904C21.8769 32.2855 21.6703 35.4027 21.4817 38.7355C21.2302 43.0204 21.1762 47.3953 21.3289 51.7521C20.0443 56.5401 19.3885 61.4899 19.3885 66.4935C19.3885 66.7899 19.3885 67.0864 19.3885 67.3828C17.2236 66.4576 14.6275 65.6042 11.8966 65.6042C6.35397 65.6042 1.9433 69.0357 0.398189 74.5694L0.317261 74.8658L0.254427 75.1712C-0.30253 77.992 0.0567359 80.7767 1.31438 83.4717C1.20658 86.4811 1.8085 89.4725 3.04818 92.1045C3.47938 100.917 11.3756 109.173 18.625 111.266C20.5474 111.823 22.4698 112.164 24.3742 112.29C23.0537 113.853 22.1733 115.676 21.7601 117.716C21.0325 121.309 22.4968 126.636 26.2158 129.349C27.9765 130.633 29.9887 131.424 32.0908 131.666C32.7825 132.511 33.6 133.256 34.5433 133.894C36.0884 134.954 37.7592 135.61 39.5289 135.88C41.595 137.506 44.1822 138.386 46.9759 138.386C47.2095 138.386 47.4431 138.386 47.6767 138.368C48.4402 138.323 49.1948 138.215 49.9225 138.036C51.6382 139.841 53.9648 141.072 56.6777 141.539C57.3425 141.656 58.0162 141.71 58.6899 141.71C59.4176 141.71 60.1452 141.647 60.8549 141.512C61.1244 141.647 61.3939 141.764 61.6724 141.88C63.2984 142.536 64.9513 142.877 66.5952 142.877C67.6013 142.877 68.5895 142.752 69.5417 142.509C70.7814 142.949 72.0929 143.174 73.4224 143.174C74.6171 143.174 75.8389 142.994 77.0336 142.626C77.6984 142.428 78.3272 142.177 78.9291 141.88C80.1687 142.303 81.4893 142.527 82.8278 142.527C84.5526 142.527 86.2414 142.159 87.7955 141.458C88.1009 141.476 88.4153 141.494 88.7208 141.494C91.0564 141.494 93.356 140.838 95.2066 139.652C95.4581 139.491 95.6917 139.329 95.9343 139.149C96.3205 139.185 96.7158 139.203 97.111 139.203C99.6982 139.203 102.16 138.395 104.226 136.859C104.603 136.58 104.953 136.284 105.295 135.969C108.789 135.619 111.709 134.514 114.233 132.592C120.512 127.822 122.138 119.719 118.186 112.892C118.078 112.703 117.961 112.514 117.853 112.335C120.009 112.254 122.201 111.903 124.375 111.275C131.615 109.182 139.521 100.935 139.952 92.1135C141.192 89.4814 141.793 86.49 141.686 83.4807C142.943 80.7947 143.303 78.0099 142.746 75.1892L142.737 75.2072Z"/>
  <path d="M138.757 75.9885L138.73 75.8358L138.685 75.6831C137.634 71.9281 134.804 69.6823 131.094 69.6823C128.004 69.6823 124.896 71.2184 122.632 72.3413L121.958 72.6737C121.294 72.9791 120.252 73.4373 119.138 73.9313C119.479 71.4879 119.659 69.0085 119.659 66.5112C119.659 60.8698 118.778 55.3451 117.036 50.09C117.125 46.4069 117.063 42.6788 116.847 39.0047C116.694 36.3637 116.515 33.0848 115.814 28.7459C115.086 24.3083 113.676 17.6427 109.84 11.0042C108.178 8.13853 106.157 5.35374 102.699 4.39254C101.962 4.18593 101.207 4.07812 100.408 4.07812C98.7279 4.07812 96.7606 4.53627 94.398 5.47052C90.4005 7.05156 87.6158 9.13566 85.9539 10.3843L85.5855 10.6538C82.7828 12.7199 80.7256 14.4986 78.345 16.7264C76.0993 16.3941 73.8176 16.2234 71.5448 16.2234C69.0565 16.2234 66.5681 16.421 64.1247 16.8253C61.6723 14.5256 59.6421 12.7739 56.7944 10.6718L56.4262 10.4023C54.7643 9.15363 51.9795 7.06055 47.973 5.47951C45.6104 4.54526 43.643 4.08712 41.9632 4.08712C41.1637 4.08712 40.4092 4.18593 39.6995 4.39254C36.214 5.36273 34.1927 8.14751 32.5308 11.0221C28.686 17.6607 27.2848 24.3262 26.5571 28.7729C25.9103 32.7794 25.7037 35.7798 25.524 39.0137C25.2725 43.3795 25.2276 47.8352 25.3983 52.2639C24.0957 56.8812 23.4399 61.6783 23.4399 66.5292C23.4399 69.0355 23.6196 71.5328 23.97 73.9942C22.8111 73.4822 21.7331 73.0061 21.0504 72.6917L20.3767 72.3593C18.1039 71.2364 14.9957 69.7002 11.9145 69.7002C8.21343 69.7002 5.37479 71.9461 4.32375 75.701L4.27879 75.8537L4.25182 76.0064C3.71283 78.7463 4.48546 80.9741 5.45564 82.663C5.15021 85.6544 5.73409 88.6637 7.10852 91.1521C6.93784 98.5183 14.1423 105.795 19.7658 107.421C21.8768 108.031 23.9879 108.337 26.045 108.337C30.9947 108.337 35.5582 106.477 38.7562 103.351C39.7174 104.294 40.7235 105.184 41.7476 106.037C40.2025 106.199 38.7024 106.783 37.4537 107.726L36.7979 108.229C36.169 108.705 35.5762 109.163 34.9833 109.559C33.7257 110.412 32.4501 111.247 31.1745 112.083L29.5035 113.179C27.4643 114.526 26.1978 116.332 25.7486 118.56C25.2905 120.806 26.3594 124.462 28.6142 126.106C30.0695 127.166 31.7674 127.732 33.5281 127.732C33.7886 127.732 34.0491 127.723 34.3096 127.696C34.8755 128.845 35.7199 129.825 36.8338 130.579C38.1903 131.505 39.6635 131.972 41.2356 131.981C42.6729 133.499 44.6941 134.361 46.9849 134.361C47.1466 134.361 47.3082 134.361 47.4699 134.352C48.9431 134.271 50.2906 133.822 51.4315 133.041C52.4286 135.466 54.5037 137.074 57.3783 137.577C57.8095 137.649 58.2587 137.694 58.6988 137.694C59.669 137.694 60.6123 137.514 61.4837 137.191C61.9958 137.577 62.5706 137.91 63.2084 138.17C64.3493 138.637 65.4902 138.871 66.6041 138.871C67.718 138.871 68.769 138.646 69.7392 138.206C70.8621 138.844 72.1197 139.176 73.4313 139.176C74.2308 139.176 75.0572 139.05 75.8747 138.808C76.9347 138.484 77.869 137.99 78.6506 137.353C79.8723 138.116 81.3185 138.538 82.8456 138.538C84.3728 138.538 85.8281 138.107 87.0678 137.335C87.6068 137.442 88.1637 137.496 88.7476 137.496C90.3107 137.496 91.8379 137.074 93.0416 136.302C93.5806 135.96 94.1735 135.484 94.7215 134.846C95.494 135.089 96.3025 135.215 97.1379 135.215C98.8447 135.215 100.471 134.676 101.836 133.669C102.474 133.193 103.022 132.645 103.471 132.026C103.66 132.044 103.848 132.044 104.046 132.044C104.262 132.044 104.477 132.035 104.702 132.017C107.522 131.765 109.849 130.912 111.799 129.429C116.398 125.935 117.593 119.988 114.691 114.984C114.089 113.951 113.442 113.017 112.822 112.11C112.284 111.328 111.781 110.601 111.349 109.873C109.804 107.25 107.181 105.687 104.324 105.687C103.498 105.687 102.672 105.822 101.863 106.073C101.495 106.19 101.153 106.334 100.812 106.495C102.016 105.534 103.175 104.519 104.297 103.432C107.478 106.549 111.978 108.355 116.982 108.355C119.039 108.355 121.15 108.049 123.27 107.439C128.893 105.813 136.098 98.5363 135.927 91.1701C137.302 88.6817 137.886 85.6723 137.58 82.6809C138.541 81.0011 139.314 78.7643 138.784 76.0334L138.757 75.9885Z" fill="white"/>
  <path d="M43.7427 112.375C42.9971 111.845 42.0447 111.935 41.1824 112.546C38.9456 114.118 36.7088 115.681 34.463 117.244C33.6994 117.783 32.873 118.241 32.1813 118.861C31.3638 119.58 31.6512 120.945 32.6394 121.403C33.2502 121.682 33.8971 121.682 34.4989 121.332C35.002 121.035 35.4691 120.676 35.9812 120.397C36.2058 120.272 36.5741 120.173 36.7717 120.263C37.67 120.685 38.5503 121.17 39.3947 121.682C39.5834 121.799 39.7271 122.14 39.7271 122.383C39.7271 122.904 39.6373 123.425 39.5834 123.955C39.4397 125.446 40.9489 126.344 42.2694 125.626C42.9521 125.257 43.0419 124.592 43.1318 123.928C43.5809 120.847 44.0121 117.756 44.4702 114.675C44.605 113.759 44.5152 112.941 43.7247 112.375H43.7427ZM40.6704 118.268C40.6165 118.367 39.826 118.08 39.3679 117.963C39.3409 117.828 39.3229 117.684 39.2959 117.55C39.8529 117.092 40.4188 116.633 40.9758 116.166L41.3081 116.355C41.1105 117.002 40.9758 117.675 40.6614 118.268H40.6704Z" fill="white" stroke="white" stroke-width="6.47" stroke-linecap="round" stroke-linejoin="round"/>
  <path d="M66.811 119.726C66.0294 120.049 65.7869 120.75 65.7151 121.522C65.6342 122.295 65.5354 123.076 65.4635 123.849C65.4276 124.217 65.2749 124.379 64.8976 124.316C64.0711 124.181 63.2356 124.047 62.4002 123.939C61.8612 123.876 61.7804 123.597 61.8882 123.121C62.0858 122.304 62.3373 121.495 62.4092 120.669C62.4541 120.193 62.2925 119.627 62.041 119.214C61.7355 118.702 61.1426 118.54 60.5318 118.666C59.8939 118.8 59.4089 119.169 59.2382 119.806C58.9777 120.786 58.7621 121.774 58.5285 122.762C57.9985 124.999 57.4595 127.236 56.9475 129.472C56.6959 130.568 57.244 131.341 58.3489 131.574C59.2921 131.781 60.1814 131.188 60.397 130.191C60.5856 129.356 60.7654 128.511 60.9181 127.676C61.0079 127.191 61.2324 127.029 61.7355 127.128C62.5799 127.289 63.4334 127.424 64.2868 127.532C64.9605 127.622 65.0324 127.694 64.9425 128.385C64.8347 129.176 64.7269 129.966 64.646 130.766C64.5202 132.122 65.724 133.066 67.0176 132.634C67.871 132.347 68.1944 131.808 68.2752 130.676C68.3651 129.41 68.4908 128.152 68.6076 126.894C68.7693 125.089 68.931 123.283 69.0927 121.522C69.1107 120.103 68.0058 119.241 66.82 119.726H66.811Z" fill="white" stroke="white" stroke-width="6.47" stroke-linecap="round" stroke-linejoin="round"/>
  <path d="M53.7946 116.841C53.031 116.536 52.2495 116.275 51.4769 116.006C50.4708 115.655 49.6623 116.006 49.2132 116.976C48.7999 117.883 48.4047 118.799 48.0004 119.707C47.1201 121.701 46.2127 123.695 45.3593 125.708C44.9102 126.759 45.2874 127.693 46.2307 128.106C47.1739 128.519 48.1531 128.142 48.6202 127.154C48.8628 126.642 49.0784 126.121 49.294 125.6C49.4736 125.16 49.7611 124.998 50.2193 125.178C50.381 125.24 50.5606 125.267 50.7313 125.321C53.7227 126.256 56.6602 124.118 56.5525 120.964C56.7141 118.961 55.4654 117.515 53.7946 116.85V116.841ZM53.1388 120.982C53.1568 121.476 52.9142 121.944 52.4291 122.096C52.0428 122.213 51.5758 122.069 51.1536 121.989C51.0727 121.971 50.9739 121.656 51.0098 121.521C51.1176 121.153 51.2793 120.794 51.45 120.443C51.5937 120.138 51.5488 119.644 52.1327 119.761C52.6807 119.868 53.1118 120.309 53.1388 120.821C53.1388 120.857 53.1388 120.902 53.1388 120.991V120.982Z" fill="white" stroke="white" stroke-width="6.47" stroke-linecap="round" stroke-linejoin="round"/>
  <path d="M83.6637 125.016C83.4302 123.596 83.2416 122.159 82.9182 120.758C82.6038 119.365 80.9868 118.889 79.9807 119.868C79.6662 120.174 79.4866 120.65 79.3159 121.081C78.8218 122.303 78.3547 123.543 77.8786 124.773C77.7978 124.773 77.7259 124.791 77.6451 124.8C77.3486 124.306 77.0432 123.821 76.7467 123.327C76.1808 122.393 75.6687 121.423 75.0309 120.551C74.5368 119.868 73.6924 119.707 72.9737 120.021C72.2641 120.336 71.9407 120.955 71.9048 121.71C71.8509 122.959 71.806 124.198 71.797 125.447C71.779 127.28 71.788 129.112 71.797 130.945C71.797 131.25 71.8329 131.573 71.9138 131.87C72.1294 132.66 72.7582 133.083 73.5846 133.047C74.4021 133.011 75.0489 132.526 75.1657 131.744C75.2555 131.133 75.2375 130.504 75.2375 129.885C75.2465 129.085 75.2375 128.277 75.2375 127.468C75.6777 127.881 75.9921 128.34 76.3334 128.78C77.2767 129.992 78.7679 129.93 79.6033 128.636C79.792 128.34 79.9088 128.007 80.0705 127.693C80.1693 127.504 80.286 127.324 80.3938 127.145C80.5825 127.414 80.6364 127.63 80.6724 127.854C80.8071 128.843 80.9328 129.822 81.0766 130.81C81.2383 131.888 82.1007 132.562 83.0888 132.382C84.1398 132.193 84.6789 131.313 84.4812 130.208C84.1758 128.483 83.9152 126.75 83.6368 125.016H83.6637Z" fill="white" stroke="white" stroke-width="6.47" stroke-linecap="round" stroke-linejoin="round"/>
  <path d="M102.852 113.983C102.915 114.145 103.013 114.298 103.103 114.442C104.172 116.166 105.286 117.864 106.31 119.616C106.993 120.775 106.607 121.727 105.385 122.284C104.154 122.841 103.04 122.482 102.421 121.278C101.486 119.472 100.579 117.658 99.6628 115.852C99.3394 115.214 98.8273 114.828 98.0997 114.774C97.4439 114.729 96.9678 115.034 96.6265 115.564C96.1593 116.274 96.4467 116.957 96.7611 117.622C97.4888 119.194 98.2344 120.766 98.971 122.338C99.6089 123.694 100.471 124.835 101.926 125.446C103.84 126.254 105.664 125.94 107.388 124.97C109.05 124.036 110.11 122.643 110.128 120.505C110.11 119.58 109.823 118.601 109.248 117.711C108.556 116.651 107.864 115.582 107.155 114.54C106.616 113.75 106.095 112.941 105.475 112.223C104.963 111.621 104.038 111.567 103.436 111.971C102.789 112.393 102.555 113.22 102.87 114.001L102.852 113.983Z" fill="white" stroke="white" stroke-width="6.47" stroke-linecap="round" stroke-linejoin="round"/>
  <path d="M91.8657 118.584C91.5692 118.243 91.192 117.893 90.7787 117.74C89.3594 117.228 88.2814 118.009 88.1286 119.617C87.9669 121.324 87.8502 123.04 87.6705 124.738C87.4998 126.328 87.2663 127.909 87.0777 129.4C87.0687 130.532 87.6346 131.268 88.533 131.385C89.4942 131.511 90.2308 130.972 90.4644 129.93C90.5722 129.454 90.644 128.969 90.671 128.484C90.6979 127.99 90.9404 127.765 91.3985 127.648C92.1352 127.469 92.8808 127.28 93.5995 127.046C94.1025 126.885 94.4618 127.001 94.7762 127.406C95.0277 127.729 95.3152 128.026 95.5847 128.331C96.3932 129.238 97.5251 129.328 98.3156 128.556C99.0612 127.819 99.0073 126.975 98.1989 126.022C96.0878 123.543 93.9947 121.046 91.8657 118.575V118.584ZM91.1381 124.307C91.0123 123.669 90.8955 123.022 90.7698 122.384C91.0392 122.303 91.3088 122.213 91.5693 122.133C91.8477 122.708 92.1172 123.282 92.3957 123.857C91.9734 124.01 91.5513 124.154 91.1381 124.307Z" fill="white" stroke="white" stroke-width="6.47" stroke-linecap="round" stroke-linejoin="round"/>
  <path d="M85.7839 122.964C85.7839 122.964 85.7839 122.883 85.7839 122.847C85.9366 121.401 86.0983 119.955 86.2511 118.508C86.4936 117.601 86.9248 116.829 87.7333 116.272C89.6108 114.96 92.135 115.517 93.3926 117.17C93.7969 117.7 94.2012 118.221 94.6055 118.751C94.7222 118.895 94.8569 119.02 94.9827 119.155C95.0276 119.128 95.0725 119.101 95.1174 119.083C95.0456 118.886 94.9737 118.679 94.8929 118.49C94.1922 116.945 94.1113 115.454 95.2073 114.026C95.9439 113.083 97.5069 112.499 98.6658 112.822C99.2946 112.993 99.8965 113.235 100.579 113.469C100.678 113.02 100.759 112.508 100.921 112.023C101.28 110.963 101.999 110.226 103.068 109.885C105.161 109.22 106.921 110.325 107.829 111.879C108.853 113.622 110.146 115.212 111.161 116.963C113.021 120.179 112.293 123.889 109.32 126.144C107.82 127.285 106.095 127.761 104.307 127.923C103.391 128.004 102.43 127.662 101.504 127.438C101.091 127.339 100.921 127.402 100.858 127.806C100.705 128.848 100.256 129.719 99.3845 130.366C97.7136 131.606 95.3779 131.238 94.0844 129.755C93.8598 129.504 93.7161 129.154 93.249 129.243C92.728 129.342 92.5573 129.684 92.4854 130.142C92.3058 131.274 91.8296 132.199 90.8235 132.846C89.7095 133.564 87.8052 133.609 86.7182 132.855C86.3409 132.594 86.1343 132.612 85.8559 132.98C84.3646 134.966 81.0318 134.957 79.6395 132.729C79.5047 132.513 79.37 132.28 79.3341 132.046C79.2532 131.57 79.0106 131.471 78.5884 131.606C78.4626 131.651 78.3099 131.705 78.1842 131.678C77.3038 131.48 77.196 132.073 77.0073 132.702C76.666 133.852 75.8306 134.543 74.6897 134.885C73.3333 135.289 72.0846 135.091 71.0246 134.148C70.6114 133.78 70.3238 133.277 69.9196 132.774C68.635 134.714 66.8384 135.253 64.7094 134.391C63.6404 133.96 62.9127 133.088 62.742 131.875C62.742 131.112 62.742 130.348 62.742 129.585H62.5444C62.4546 130.034 62.3648 130.483 62.275 130.932C61.9516 132.648 59.9663 133.897 58.0528 133.564C55.816 133.178 55.0166 131.875 54.8369 130.115C54.7561 129.315 55.1064 128.48 55.2591 127.662C55.304 127.429 55.34 127.186 55.3849 126.899C54.765 127.06 54.253 127.258 53.723 127.33C52.9145 127.438 52.097 127.501 51.2885 127.51C50.9112 127.51 50.7046 127.617 50.5519 127.941C49.8961 129.36 48.7732 130.214 47.2371 130.294C45.647 130.375 44.1559 129.71 43.4462 128.076C43.2396 127.608 43.042 127.555 42.6108 127.698C41.3711 128.111 40.2033 127.968 39.1074 127.222C37.8587 126.369 37.4814 125.12 37.5443 123.719C37.5623 123.279 37.4904 123.045 37.1041 122.829C36.7358 122.623 36.4483 122.497 36.0531 122.802C34.4451 124.024 32.4598 123.907 30.9955 122.838C30.196 122.254 29.5313 120.269 29.711 119.371C29.9715 118.095 30.6991 117.242 31.7232 116.568C33.5648 115.355 35.4152 114.152 37.2478 112.921C38.1551 112.31 39.0085 111.627 39.8889 110.972C41.8293 109.516 44.6859 109.759 45.9705 111.843C46.5095 112.714 46.7521 113.684 46.5365 114.745C46.3029 115.885 46.1412 117.044 45.9525 118.203C45.8717 118.58 45.7908 118.967 45.71 119.344C45.7998 119.362 45.8897 119.38 45.9795 119.398C46.0514 119.155 46.1142 118.913 46.1861 118.661C46.761 117.511 47.2281 116.29 47.9378 115.23C48.7373 114.053 50.0668 113.613 51.4143 113.972C52.9504 114.385 54.4507 114.987 55.87 115.697C56.5797 116.056 57.0917 116.82 57.6486 117.43C57.9002 117.709 58.0529 117.862 58.3942 117.547C60.1908 115.885 63.2182 116.559 64.1704 118.724C64.2154 118.823 64.2962 118.913 64.413 119.074C65.2664 118.068 66.3533 117.502 67.602 117.574C68.8147 117.646 69.9017 118.185 70.6293 119.335C71.5995 118.194 72.7942 117.763 74.2046 117.907C75.6599 118.059 76.5851 118.958 77.3397 120.197C77.6362 119.703 77.8518 119.317 78.1034 118.949C78.822 117.871 79.909 117.404 81.1397 117.314C82.7926 117.197 84.4994 118.535 84.8497 120.152C85.0564 121.105 85.218 122.057 85.4067 123.009C85.4336 123.395 85.4606 123.782 85.4875 124.159C85.5863 124.159 85.6761 124.159 85.7749 124.159V123L85.7839 122.964ZM77.8967 124.761C77.8158 124.761 77.744 124.779 77.6632 124.788C77.3668 124.294 77.0613 123.809 76.7649 123.314C76.1989 122.38 75.6869 121.41 75.0491 120.539C74.555 119.856 73.7105 119.694 72.9919 120.009C72.2822 120.323 71.9589 120.943 71.9229 121.697C71.869 122.946 71.8241 124.186 71.8151 125.434C71.7972 127.267 71.8062 129.1 71.8151 130.932C71.8151 131.238 71.8511 131.561 71.9319 131.857C72.1475 132.648 72.7763 133.07 73.6028 133.034C74.4202 132.998 75.0671 132.513 75.1838 131.732C75.2737 131.121 75.2557 130.492 75.2557 129.872C75.2646 129.073 75.2557 128.264 75.2557 127.456C75.6958 127.869 76.0102 128.327 76.3516 128.767C77.2948 129.98 78.786 129.917 79.6215 128.624C79.8101 128.327 79.9269 127.995 80.0886 127.68C80.1874 127.492 80.3042 127.312 80.412 127.132C80.6006 127.402 80.6546 127.617 80.6905 127.842C80.8253 128.83 80.951 129.809 81.0947 130.797C81.2564 131.875 82.1188 132.549 83.1069 132.369C84.158 132.181 84.697 131.301 84.4994 130.196C84.194 128.471 83.9334 126.737 83.6549 125.003C83.4213 123.584 83.2327 122.147 82.9093 120.745C82.5949 119.353 80.9779 118.877 79.9718 119.856C79.6574 120.161 79.4778 120.637 79.3071 121.069C78.813 122.29 78.3459 123.53 77.8698 124.761H77.8967ZM69.0932 121.509C69.1112 120.089 68.0062 119.227 66.8204 119.712C66.0389 120.036 65.7964 120.736 65.7245 121.509C65.6437 122.281 65.5448 123.063 65.473 123.835C65.437 124.204 65.2843 124.365 64.907 124.303C64.0806 124.168 63.2451 124.033 62.4097 123.925C61.8707 123.862 61.7899 123.584 61.8977 123.108C62.0953 122.29 62.3468 121.482 62.4187 120.655C62.4636 120.179 62.302 119.613 62.0504 119.2C61.745 118.688 61.1521 118.526 60.5412 118.652C59.9034 118.787 59.4184 119.155 59.2477 119.793C58.9872 120.772 58.7715 121.76 58.538 122.749C58.008 124.985 57.469 127.222 56.9569 129.459C56.7054 130.555 57.2533 131.327 58.3582 131.561C59.3015 131.768 60.1908 131.175 60.4064 130.178C60.5951 129.342 60.7748 128.498 60.9275 127.662C61.0174 127.177 61.2419 127.016 61.7449 127.114C62.5893 127.276 63.4428 127.411 64.2962 127.519C64.97 127.608 65.0418 127.68 64.952 128.372C64.8442 129.163 64.7363 129.953 64.6555 130.753C64.5297 132.109 65.7335 133.052 67.027 132.621C67.8804 132.334 68.2039 131.795 68.2847 130.663C68.3745 129.396 68.5003 128.138 68.6171 126.881C68.7788 125.075 68.9405 123.27 69.1022 121.509H69.0932ZM110.119 120.494C110.101 119.568 109.814 118.589 109.239 117.7C108.547 116.64 107.856 115.571 107.146 114.529C106.607 113.738 106.086 112.93 105.466 112.211C104.954 111.609 104.029 111.555 103.427 111.96C102.78 112.382 102.547 113.208 102.861 113.99C102.924 114.152 103.023 114.304 103.112 114.448C104.181 116.173 105.295 117.871 106.319 119.622C107.002 120.781 106.616 121.733 105.394 122.29C104.164 122.847 103.05 122.488 102.43 121.284C101.496 119.479 100.588 117.664 99.672 115.858C99.3486 115.221 98.8364 114.834 98.1088 114.78C97.453 114.736 96.977 115.041 96.6357 115.571C96.1685 116.281 96.4559 116.963 96.7703 117.628C97.498 119.2 98.2436 120.772 98.9803 122.344C99.6181 123.701 100.48 124.842 101.936 125.452C103.849 126.261 105.673 125.947 107.397 124.976C109.059 124.042 110.119 122.65 110.137 120.512L110.119 120.494ZM39.6014 123.952C39.4576 125.443 40.9669 126.342 42.2874 125.623C42.9702 125.255 43.06 124.59 43.1498 123.925C43.5989 120.844 44.0301 117.754 44.4883 114.673C44.623 113.756 44.5332 112.939 43.7427 112.373C42.9971 111.843 42.0448 111.933 41.1824 112.544C38.9456 114.116 36.7088 115.679 34.463 117.242C33.6994 117.781 32.8731 118.239 32.1814 118.859C31.3639 119.577 31.6513 120.943 32.6394 121.401C33.2503 121.68 33.8971 121.68 34.499 121.329C35.002 121.033 35.4692 120.673 35.9812 120.395C36.2058 120.269 36.5741 120.17 36.7718 120.26C37.6701 120.682 38.5504 121.167 39.3948 121.68C39.5834 121.796 39.7271 122.138 39.7271 122.38C39.7271 122.901 39.6374 123.422 39.5835 123.952H39.6014ZM87.0775 129.405C87.0686 130.537 87.6345 131.274 88.5328 131.39C89.494 131.516 90.2307 130.977 90.4642 129.935C90.572 129.459 90.6439 128.974 90.6708 128.489C90.6978 127.995 90.9403 127.77 91.3984 127.653C92.135 127.474 92.8807 127.285 93.5993 127.051C94.1024 126.89 94.4617 127.007 94.7761 127.411C95.0276 127.734 95.3151 128.031 95.5846 128.336C96.3931 129.243 97.525 129.333 98.3155 128.561C99.0611 127.824 99.0072 126.98 98.1987 126.027C96.0877 123.548 93.9946 121.051 91.8655 118.58C91.5691 118.239 91.1918 117.889 90.7786 117.736C89.3593 117.224 88.2812 118.005 88.1285 119.613C87.9668 121.32 87.85 123.036 87.6704 124.734C87.4997 126.324 87.2662 127.905 87.0775 129.396V129.405ZM56.5527 120.952C56.7144 118.949 55.4657 117.502 53.7948 116.838C53.0313 116.532 52.2498 116.272 51.4772 116.002C50.4711 115.652 49.6626 116.002 49.2134 116.972C48.8002 117.88 48.405 118.796 48.0007 119.703C47.1204 121.697 46.213 123.692 45.3596 125.704C44.9105 126.755 45.2877 127.689 46.231 128.102C47.1742 128.516 48.1534 128.138 48.6205 127.15C48.8631 126.638 49.0787 126.117 49.2942 125.596C49.4739 125.156 49.7614 124.994 50.2195 125.174C50.3812 125.237 50.5609 125.264 50.7315 125.318C53.7229 126.252 56.6605 124.114 56.5527 120.961V120.952Z"/>
  <path d="M39.2961 117.557C39.853 117.099 40.419 116.641 40.9759 116.174C41.0837 116.237 41.2005 116.3 41.3083 116.362C41.1107 117.009 40.9759 117.683 40.6615 118.276C40.6076 118.375 39.8172 118.087 39.359 117.97C39.3321 117.836 39.314 117.692 39.2871 117.557H39.2961Z"/>
  <path d="M91.569 122.121C91.8475 122.696 92.117 123.271 92.3954 123.846C91.9732 123.999 91.5511 124.142 91.1379 124.295C91.0121 123.657 90.8953 123.01 90.7695 122.373C91.039 122.292 91.3085 122.202 91.569 122.121Z"/>
  <path d="M53.1305 120.977C53.1485 121.472 52.9059 121.939 52.4208 122.091C52.0345 122.208 51.5675 122.064 51.1453 121.984C51.0644 121.966 50.9656 121.651 51.0015 121.516C51.1093 121.148 51.271 120.789 51.4417 120.439C51.5854 120.133 51.5405 119.639 52.1244 119.756C52.6724 119.864 53.1036 120.304 53.1305 120.816C53.1305 120.852 53.1305 120.897 53.1305 120.986V120.977Z"/>
  <path d="M40.3823 40.0896C41.2177 39.0206 42.1249 37.9965 43.1041 37.0622C42.6729 36.4693 42.2508 35.8226 41.8196 35.1309C39.9062 37.2239 38.1814 39.5147 36.6632 41.9581C37.2022 42.4072 37.7321 42.8294 38.2532 43.2157C38.9 42.1198 39.6008 41.0777 40.3823 40.0806V40.0896Z" fill="white" stroke="white" stroke-width="6.47" stroke-linecap="round" stroke-linejoin="round"/>
  <path d="M102.33 33.4059C102.33 33.4059 102.33 33.3609 102.348 33.343C102.636 31.9057 102.995 29.3994 102.762 26.4619C102.537 23.5783 101.54 20.7216 100.201 19.2124C99.4019 18.3141 98.3059 18.2153 97.3447 18.5836C94.4791 19.994 91.865 22.635 90.1851 24.5844C94.3443 26.6236 98.1533 29.3275 101.468 32.5525C101.756 32.8309 102.043 33.1184 102.321 33.4059H102.33Z" fill="white" stroke="white" stroke-width="6.47" stroke-linecap="round" stroke-linejoin="round"/>
  <path d="M30.7791 83.9975C29.225 83.0633 27.5811 82.3087 26.081 81.7517C22.0565 80.1527 17.8074 77.1883 13.5673 75.7959C12.705 75.5084 11.2317 75.6252 10.522 76.1911C6.91079 79.0388 16.7654 86.5308 20.2689 87.4471C20.5024 87.5099 20.4934 87.8423 20.2599 87.8962C18.4632 88.2556 11.8606 84.7701 11.3485 83.5394C11.2138 84.3928 11.1959 85.2641 11.2947 86.1355C11.5372 90.5013 16.2264 92.6483 19.0472 93.9958C19.2448 94.0856 19.1549 94.3821 18.9393 94.3641C17.1606 94.1934 14.5376 93.0346 13.2709 92.1812C14.9598 100.401 23.0626 103.823 29.4407 101.847C24.1855 101.021 22.2182 95.7745 23.7184 92.3249C24.473 90.5912 25.7485 89.1449 28.6321 89.2796C32.6386 89.8007 33.4202 94.5258 32.0638 94.1575C31.8212 94.0946 31.6415 93.87 31.5876 93.6275C30.878 90.142 26.2786 89.9803 25.0479 93.2951C23.2243 99.8349 33.1058 102.045 35.9804 96.5291C36.3128 95.9721 36.5733 95.4151 36.762 94.8851C34.3185 91.5883 32.2973 87.9411 30.7701 84.0245L30.7791 83.9975Z" fill="white" stroke="white" stroke-width="6.47" stroke-linecap="round" stroke-linejoin="round"/>
  <path d="M104.226 71.5049C104.199 69.1603 103.929 66.8876 103.444 64.6867C100.444 63.1056 97.102 61.0126 93.7063 58.2457C90.2568 55.443 87.5169 52.5414 85.3609 49.9094C84.3728 48.6876 83.5014 47.5288 82.7558 46.4508C82.4953 46.0825 82.2528 45.7322 82.0282 45.3908C81.8036 45.8579 81.5701 46.343 81.3455 46.8461C80.7167 48.1756 80.1148 49.6309 79.5309 51.2029C78.8571 53.0086 78.2104 54.9759 77.6444 57.0779C75.9376 63.447 75.4704 69.0974 75.4525 73.4453C71.3471 70.8402 67.9874 67.7589 65.3374 64.543C62.876 61.291 60.9896 57.6259 59.9026 53.7452L59.5073 52.254L59.3007 51.5084L59.2289 51.167L59.139 50.7628L58.7977 49.2626L58.5462 47.7354C58.4833 47.2953 58.4293 46.8641 58.3844 46.4239C58.2137 44.8159 58.1688 43.181 58.2676 41.555C58.4383 37.4048 59.3187 33.2905 60.6212 29.248C58.4473 32.9222 57.2525 37.1622 56.8124 41.4562C56.6866 42.5342 56.6687 43.6122 56.6327 44.6901C56.6327 45.0854 56.6328 45.4806 56.6507 45.8669C56.6507 46.0107 56.6507 46.1634 56.6597 46.3161C56.6777 46.8641 56.6956 47.403 56.7495 47.942L56.9022 49.577C56.9471 49.8285 56.983 50.08 57.0279 50.3226C56.9202 50.4394 56.8124 50.5561 56.6956 50.6819C54.3869 53.1972 51.6201 55.8293 48.3413 58.3895C45.0984 60.9227 41.9542 62.935 39.0796 64.534C38.5496 66.8606 38.2621 69.2861 38.2531 71.7744C40.4001 70.8671 41.2356 69.331 43.5083 67.3547C47.3172 64.0489 52.5903 62.5217 57.5221 64.8124C61.7801 66.0611 64.9512 70.8851 64.9512 76.6433C64.9512 83.3537 60.6482 88.7886 55.3391 88.7886C50.03 88.7886 45.7271 83.3537 45.7271 76.6433C45.7271 73.2656 46.8142 70.2113 48.5749 68.0105C46.8231 69.0256 45.3858 70.4898 44.3887 72.2954C42.3046 76.0774 42.4124 81.5571 45.0894 86.8931C41.3164 83.0663 40.1755 78.7633 40.7324 74.9275C40.463 74.8377 40.1845 74.7299 39.8881 74.6131C39.3042 74.3706 38.7832 74.0921 38.316 73.7956C38.9987 85.5366 45.817 95.6248 55.6086 100.907C60.2709 103.422 65.589 104.85 71.2484 104.85C77.5546 104.85 83.4385 103.09 88.4511 100.018C97.3175 94.5917 103.417 85.1054 104.163 74.137C103.857 74.3077 103.525 74.4694 103.175 74.6131C102.887 74.7299 102.609 74.8377 102.33 74.9275C102.896 78.7633 101.746 83.0663 97.9734 86.8931C100.65 81.5481 100.758 76.0774 98.674 72.2954C97.6768 70.4898 96.2306 69.0256 94.4879 68.0105C96.2486 70.2113 97.3355 73.2656 97.3355 76.6433C97.3355 83.3537 93.0326 88.7886 87.7235 88.7886C82.4145 88.7886 78.1116 83.3537 78.1116 76.6433C78.1116 70.8851 81.2825 66.0611 85.5406 64.8124C90.4723 62.5217 95.7455 64.0489 99.5544 67.3547C101.612 69.1423 102.492 70.5707 104.244 71.5049H104.226ZM77.6264 89.067C76.9437 91.6901 73.4222 92.6423 71.5088 90.7289C69.6134 92.6513 66.0651 91.6991 65.3913 89.067C65.2835 88.7167 65.4812 88.3484 65.8315 88.2406C66.1819 88.1418 66.5502 88.3394 66.658 88.6897C67.1521 90.6391 69.8919 91.0343 70.9429 89.3365C70.9878 89.2647 71.0418 89.2108 71.1136 89.1658C71.1136 89.1658 71.0956 89.1748 71.0956 89.1838C71.1046 89.1748 71.1226 89.1569 71.1316 89.1479C71.1316 89.1479 71.1675 89.1299 71.1765 89.1209C71.437 88.9772 71.8053 89.0221 71.994 89.2737C73.036 91.0164 75.8208 90.675 76.3328 88.6897C76.5574 87.8543 77.86 88.2406 77.6084 89.067H77.6264Z" fill="white" stroke="white" stroke-width="6.47" stroke-linecap="round" stroke-linejoin="round"/>
  <path d="M102.465 41.7782C101.773 40.8889 101.046 40.0175 100.3 39.1821C99.4737 38.2748 98.6203 37.3944 97.7309 36.541C94.8204 39.5414 89.664 44.1588 84.0674 45.7847C84.813 46.8627 85.6844 48.0215 86.6816 49.2432C93.7603 47.2849 98.1262 45.4613 102.465 41.7782Z" fill="white" stroke="white" stroke-width="6.47" stroke-linecap="round" stroke-linejoin="round"/>
  <path d="M43.9126 38.1309C43.0233 38.9932 42.1968 39.9185 41.4243 40.9067C40.6607 41.8948 39.96 42.9279 39.3402 44.0148C43.9306 47.1769 48.3683 48.5154 55.3662 50.0246C55.483 49.9078 55.5907 49.791 55.6985 49.6653C55.6536 49.4227 55.6087 49.1712 55.5728 48.9197L55.4201 47.2847C55.3572 46.7457 55.3392 46.1978 55.3302 45.6588C55.3302 45.515 55.3303 45.3623 55.3123 45.2186C49.7068 43.2692 46.5896 41.4367 43.9216 38.1399L43.9126 38.1309Z" fill="white" stroke="white" stroke-width="6.47" stroke-linecap="round" stroke-linejoin="round"/>
  <path d="M59.8667 47.735L60.1093 49.2621L60.4507 50.7623L60.5405 51.1666C63.3163 51.6427 65.2387 51.9301 67.8888 52.011C68.1313 52.011 68.3828 52.02 68.6433 52.0289C68.7691 52.0289 68.9038 52.0289 69.0385 52.0289C69.1733 52.0289 69.3081 52.0289 69.4428 52.0289C69.6045 52.0289 69.7661 52.0289 69.9189 52.0289C70.0716 52.0289 70.2243 52.0289 70.377 52.0289C70.5297 52.0289 70.6735 52.0289 70.8262 52.02C70.9699 52.02 71.1137 52.02 71.2575 52.011C71.4102 52.011 71.5629 52.002 71.7066 51.993C73.9434 51.8942 75.7131 51.6247 78.1834 51.2115C78.7674 49.6394 79.3782 48.1841 79.9981 46.8546C76.6294 47.708 74.3566 48.1752 70.6106 48.1752C66.2897 48.1752 63.487 47.5643 59.6961 46.4414C59.741 46.8816 59.7949 47.3128 59.8667 47.753V47.735Z" fill="white" stroke="white" stroke-width="6.47" stroke-linecap="round" stroke-linejoin="round"/>
  <path d="M52.4286 24.8357C50.7667 22.8774 48.0449 20.0567 45.0535 18.5834C44.0923 18.2151 42.9963 18.3229 42.1968 19.2123C40.8583 20.7214 39.8612 23.5781 39.6366 26.4617C39.3671 29.9202 39.9151 32.7948 40.2115 34.0165C43.724 30.2705 47.8652 27.1444 52.4286 24.8357Z" fill="white" stroke="white" stroke-width="6.47" stroke-linecap="round" stroke-linejoin="round"/>
  <path d="M122.758 87.4507C126.261 86.5344 136.107 79.0425 132.505 76.1948C131.786 75.6378 130.322 75.5211 129.459 75.7995C125.219 77.1919 120.97 80.1564 116.946 81.7554C115.491 82.2944 113.892 83.022 112.382 83.9203C110.837 87.9089 108.78 91.6099 106.292 94.9517C106.481 95.4637 106.723 95.9757 107.037 96.5058C109.912 102.03 119.794 99.8116 117.97 93.2718C116.748 89.957 112.149 90.1187 111.43 93.6042C111.376 93.8557 111.206 94.0713 110.954 94.1342C109.598 94.5025 110.379 89.7774 114.386 89.2563C117.269 89.1126 118.545 90.5679 119.3 92.3016C120.809 95.7512 118.841 100.997 113.577 101.824C119.946 103.8 128.049 100.386 129.747 92.1579C128.48 93.0113 125.857 94.1791 124.079 94.3408C123.863 94.3588 123.773 94.0713 123.971 93.9725C126.791 92.625 131.481 90.478 131.723 86.1122C131.822 85.2409 131.804 84.3695 131.669 83.5161C131.148 84.7468 124.546 88.2323 122.758 87.8729C122.524 87.828 122.516 87.4867 122.749 87.4238L122.758 87.4507Z" fill="white" stroke="white" stroke-width="6.47" stroke-linecap="round" stroke-linejoin="round"/>
  <path d="M90.1669 82.1739C90.1669 83.4046 91.2 84.3928 92.4666 84.3928C93.7332 84.3928 94.7663 83.3956 94.7663 82.1739C94.7663 80.9522 93.7332 79.9551 92.4666 79.9551C91.2 79.9551 90.1669 80.9522 90.1669 82.1739Z" fill="white" stroke="white" stroke-width="6.47" stroke-linecap="round" stroke-linejoin="round"/>
  <path d="M100.183 33.8105C100.183 33.8105 99.6263 34.5112 98.6381 35.5802C99.5544 36.4516 100.435 37.3589 101.279 38.2932C102.034 39.1376 102.761 40.0089 103.462 40.9073C103.956 40.4581 104.441 39.982 104.935 39.4879C103.732 37.7901 102.411 36.1731 101.01 34.6819C100.74 34.3945 100.462 34.107 100.183 33.8195V33.8105Z" fill="white" stroke="white" stroke-width="6.47" stroke-linecap="round" stroke-linejoin="round"/>
  <path d="M58.151 78.0065C60.5854 78.0065 62.5528 75.8146 62.5528 73.1107C62.5528 70.4067 60.5854 68.2148 58.151 68.2148C55.7165 68.2148 53.7492 70.4067 53.7492 73.1107C53.7492 75.8146 55.7165 78.0065 58.151 78.0065Z" fill="white" stroke="white" stroke-width="6.47" stroke-linecap="round" stroke-linejoin="round"/>
  <path d="M80.4742 73.1107C80.4742 75.8146 82.4505 78.0065 84.876 78.0065C87.3014 78.0065 89.2777 75.8146 89.2777 73.1107C89.2777 70.4067 87.3104 68.2148 84.876 68.2148C82.4415 68.2148 80.4742 70.4067 80.4742 73.1107Z" fill="white" stroke="white" stroke-width="6.47" stroke-linecap="round" stroke-linejoin="round"/>
  <path d="M50.5602 84.3928C51.8303 84.3928 52.8599 83.3994 52.8599 82.1739C52.8599 80.9485 51.8303 79.9551 50.5602 79.9551C49.2902 79.9551 48.2605 80.9485 48.2605 82.1739C48.2605 83.3994 49.2902 84.3928 50.5602 84.3928Z" fill="white" stroke="white" stroke-width="6.47" stroke-linecap="round" stroke-linejoin="round"/>
  <path d="M133.313 81.7265C134.355 80.2982 135.164 78.7262 134.778 76.7588C133.223 71.1713 127.052 74.7017 123.692 76.3277C121.977 77.1182 117.647 78.9957 115.994 79.7772C115.104 80.0647 114.269 80.3791 113.478 80.7204C114.853 76.2378 115.598 71.4677 115.598 66.509C115.598 60.9574 114.673 55.6304 112.957 50.6986C113.047 47.5455 113.047 43.6558 112.787 39.2271C112.625 36.4154 112.445 33.3791 111.799 29.3995C110.918 24.0455 109.454 18.467 106.319 13.0322C104.684 10.2204 103.39 8.79211 101.567 8.28007C100.866 8.08244 99.4017 7.83091 95.8713 9.23229C92.0804 10.7325 89.5383 12.7537 87.9842 13.9125C84.7592 16.2931 82.6122 18.2244 79.6567 21.0631C77.0337 20.5421 74.3117 20.2726 71.5449 20.2726C68.5625 20.2726 65.643 20.587 62.8313 21.1799C59.8129 18.2873 57.6479 16.329 54.3781 13.9125C52.824 12.7627 50.2817 10.7325 46.4908 9.23229C42.9604 7.83091 41.5052 8.08244 40.7955 8.28007C38.9719 8.79211 37.6783 10.2204 36.0434 13.0322C32.9082 18.458 31.435 24.0455 30.5637 29.3995C29.9169 33.3791 29.7372 36.4154 29.5755 39.2271C29.2611 44.6619 29.333 49.2793 29.4857 52.7288C28.2011 57.0767 27.5004 61.712 27.5004 66.509C27.5004 71.306 28.246 76.2827 29.6384 80.7743C28.8209 80.415 27.9406 80.0826 27.0153 79.7772C25.3624 78.9957 21.0325 77.1182 19.3167 76.3277C15.957 74.7017 9.79456 71.1713 8.23149 76.7588C7.84521 78.7172 8.66268 80.2982 9.69575 81.7265C9.06693 84.5652 9.52508 87.7632 11.2768 90.1258C10.2078 95.7223 16.7385 102.289 20.8977 103.493C29.288 105.918 36.0164 102.226 38.379 96.944C45.4757 105.469 55.5009 111.227 66.8108 112.494C62.5797 111.03 59.0044 107.769 56.7317 103.466C61.367 105.397 66.5054 106.475 71.9312 106.475C77.3571 106.475 82.3607 105.424 86.9421 103.538C84.7232 107.697 81.2827 110.877 77.1954 112.377C88.1009 110.913 97.7668 105.262 104.675 97.0159C107.073 102.262 113.784 105.9 122.129 103.493C126.279 102.289 132.81 95.7223 131.75 90.1258C133.502 87.7632 133.96 84.5652 133.331 81.7265H133.313ZM97.3356 18.5928C98.2968 18.2244 99.3928 18.3322 100.192 19.2216C101.531 20.7308 102.528 23.5874 102.752 26.471C102.986 29.4085 102.618 31.9148 102.339 33.3521C102.339 33.3701 102.339 33.3881 102.321 33.415C102.043 33.1186 101.755 32.8401 101.468 32.5616C98.1531 29.3366 94.3442 26.6327 90.185 24.5935C91.8559 22.6532 94.47 20.0121 97.3446 18.5928H97.3356ZM97.7219 36.5501C98.6112 37.4035 99.4646 38.2839 100.291 39.1912C101.037 40.0266 101.773 40.898 102.456 41.7873C98.1172 45.4704 93.7423 47.294 86.6725 49.2523C85.6844 48.0306 84.8131 46.8718 84.0585 45.7938C89.6461 44.1589 94.8114 39.5505 97.7219 36.5501ZM70.6016 48.1744C74.3476 48.1744 76.6294 47.7072 79.9891 46.8538C79.3693 48.1834 78.7584 49.6386 78.1745 51.2107C75.7131 51.6239 73.9345 51.8934 71.6977 51.9922C71.5449 51.9922 71.3922 52.0012 71.2485 52.0102C71.1048 52.0102 70.9609 52.0192 70.8172 52.0192C70.6735 52.0192 70.5208 52.0192 70.3681 52.0282C70.2153 52.0282 70.0627 52.0282 69.91 52.0282C69.7573 52.0282 69.5956 52.0282 69.4339 52.0282C69.2991 52.0282 69.1553 52.0282 69.0296 52.0282C68.8948 52.0282 68.7691 52.0282 68.6344 52.0282C68.3739 52.0282 68.1224 52.0192 67.8798 52.0102C65.2298 51.9293 63.3073 51.6419 60.5315 51.1658L60.4417 50.7615L60.1003 49.2613L59.8578 47.7342C59.7949 47.294 59.7411 46.8628 59.6872 46.4226C63.4781 47.5455 66.2807 48.1564 70.6016 48.1564V48.1744ZM55.2944 45.2189C55.2944 45.3626 55.2944 45.5154 55.3124 45.6591C55.3213 46.2071 55.3483 46.746 55.4022 47.285L55.5548 48.92C55.5907 49.1715 55.6357 49.423 55.6806 49.6656C55.5728 49.7824 55.465 49.8991 55.3482 50.0249C48.3503 48.5157 43.9127 47.1862 39.3223 44.0152C39.9421 42.9372 40.6427 41.8951 41.4063 40.907C42.1789 39.9278 43.0053 38.9936 43.8947 38.1312C46.5716 41.419 49.6799 43.2606 55.2854 45.2099L55.2944 45.2189ZM39.6276 26.48C39.8522 23.5964 40.8493 20.7397 42.1878 19.2306C42.9873 18.3323 44.0743 18.2334 45.0445 18.6017C48.0359 20.075 50.7578 22.8957 52.4197 24.854C47.8562 27.1717 43.715 30.2889 40.2026 34.0348C39.9151 32.8131 39.3582 29.9385 39.6276 26.48ZM41.8016 35.1488C42.2238 35.8405 42.655 36.4873 43.0862 37.0801C42.107 38.0144 41.1998 39.0295 40.3643 40.1075C39.5918 41.1046 38.8821 42.1467 38.2353 43.2426C37.7143 42.8473 37.1843 42.4341 36.6453 41.985C38.1634 39.5326 39.8882 37.2418 41.8016 35.1577V35.1488ZM35.9805 96.5308C33.1059 102.055 23.2244 99.8366 25.048 93.2969C26.2697 89.9821 30.8691 90.1438 31.5877 93.6292C31.6416 93.8808 31.8124 94.0964 32.0639 94.1593C33.4203 94.5276 32.6387 89.8024 28.6322 89.2814C25.7486 89.1377 24.4731 90.5929 23.7185 92.3267C22.2093 95.7762 24.1766 101.022 29.4408 101.849C23.0717 103.825 14.9689 100.412 13.271 92.183C14.5377 93.0364 17.1607 94.2042 18.9394 94.3659C19.155 94.3838 19.2449 94.0964 19.0473 93.9976C16.2265 92.6501 11.5373 90.5031 11.2948 86.1373C11.196 85.2659 11.2139 84.3945 11.3486 83.5411C11.8696 84.7718 18.4723 88.2573 20.26 87.898C20.4935 87.8531 20.5025 87.5117 20.269 87.4488C16.7655 86.5325 6.91988 79.0406 10.5221 76.1929C11.2318 75.636 12.7051 75.5192 13.5674 75.7976C17.8075 77.19 22.0566 80.1545 26.0811 81.7535C27.5812 82.3104 29.2252 83.065 30.7792 83.9993C32.3064 87.9159 34.3276 91.5721 36.7711 94.86C36.5824 95.3989 36.3219 95.9469 35.9895 96.5039L35.9805 96.5308ZM85.5048 64.8292C81.2468 66.0778 78.0757 70.9018 78.0757 76.66C78.0757 83.3705 82.3786 88.8053 87.6877 88.8053C92.9967 88.8053 97.2997 83.3705 97.2997 76.66C97.2997 73.2823 96.2127 70.2281 94.452 68.0272C96.2037 69.0423 97.6411 70.5066 98.6382 72.3122C100.722 76.0941 100.614 81.5738 97.9375 86.9098C101.71 83.083 102.86 78.7801 102.294 74.9442C102.564 74.8544 102.842 74.7466 103.139 74.6298C103.489 74.4861 103.821 74.3244 104.127 74.1537C103.381 85.1222 97.2817 94.6084 88.4153 100.034C83.4027 103.107 77.5187 104.867 71.2125 104.867C65.5531 104.867 60.2261 103.439 55.5728 100.924C45.7811 95.6415 38.9539 85.5534 38.2802 73.8124C38.7473 74.0998 39.2683 74.3783 39.8522 74.6298C40.1397 74.7466 40.4182 74.8544 40.6967 74.9442C40.1308 78.7801 41.2806 83.083 45.0535 86.9098C42.3765 81.5648 42.2687 76.0941 44.3528 72.3122C45.3499 70.5066 46.7963 69.0423 48.539 68.0272C46.7783 70.2281 45.6913 73.2823 45.6913 76.66C45.6913 83.3705 49.9943 88.8053 55.3034 88.8053C60.6124 88.8053 64.9153 83.3705 64.9153 76.66C64.9153 70.9018 61.7442 66.0778 57.4862 64.8292C52.5544 62.5385 47.2813 64.0656 43.4725 67.3714C41.1997 69.3387 40.3643 70.8749 38.2173 71.7911C38.2173 69.3028 38.5137 66.8773 39.0437 64.5507C41.9183 62.9517 45.0715 60.9395 48.3054 58.4062C51.5843 55.846 54.3512 53.205 56.6598 50.6986C56.7766 50.5819 56.8844 50.4561 56.9922 50.3393C56.9473 50.0878 56.9024 49.8363 56.8664 49.5937L56.7137 47.9588C56.6508 47.4198 56.6328 46.8808 56.6239 46.3328C56.6239 46.1891 56.6239 46.0364 56.6149 45.8837C56.5969 45.4974 56.5879 45.1021 56.5969 44.7069C56.6328 43.6289 56.6509 42.5419 56.7766 41.4729C57.2168 37.1879 58.4115 32.9479 60.5855 29.2648C59.2829 33.3072 58.3936 37.4215 58.2319 41.5717C58.1421 43.1977 58.187 44.8326 58.3487 46.4406C58.3936 46.8808 58.4474 47.312 58.5103 47.7522L58.7619 49.2793L59.1032 50.7795L59.193 51.1837L59.2649 51.5251L59.4716 52.2707L59.8668 53.7619C60.9537 57.6426 62.8313 61.3078 65.3016 64.5597C67.9517 67.7757 71.3114 70.8569 75.4167 73.462C75.4347 69.1142 75.9017 63.4637 77.6086 57.0947C78.1745 54.9926 78.8123 53.0253 79.495 51.2197C80.0789 49.6476 80.6898 48.1923 81.3096 46.8628C81.5342 46.3598 81.7678 45.8747 81.9923 45.4076C82.2169 45.7489 82.4594 46.1082 82.7199 46.4676C83.4655 47.5366 84.3369 48.7044 85.3251 49.9261C87.481 52.5582 90.2299 55.4507 93.6705 58.2625C97.0661 61.0383 100.408 63.1224 103.408 64.7034C103.893 66.8953 104.163 69.177 104.19 71.5216C102.438 70.5874 101.558 69.1591 99.5006 67.3714C95.6917 64.0656 90.4186 62.5385 85.4868 64.8292H85.5048ZM94.7574 82.2026C94.7574 83.4333 93.7244 84.4215 92.4578 84.4215C91.1911 84.4215 90.158 83.4244 90.158 82.2026C90.158 80.9809 91.1911 79.9838 92.4578 79.9838C93.7244 79.9838 94.7574 80.9809 94.7574 82.2026ZM89.2687 73.1386C89.2687 75.8426 87.3014 78.0345 84.8669 78.0345C82.4325 78.0345 80.4652 75.8426 80.4652 73.1386C80.4652 70.4347 82.4415 68.2428 84.8669 68.2428C87.2924 68.2428 89.2687 70.4347 89.2687 73.1386ZM50.5512 79.9838C51.8179 79.9838 52.8509 80.9809 52.8509 82.2026C52.8509 83.4244 51.8179 84.4215 50.5512 84.4215C49.2846 84.4215 48.2515 83.4244 48.2515 82.2026C48.2515 80.9809 49.2846 79.9838 50.5512 79.9838ZM53.7403 73.1386C53.7403 70.4347 55.7075 68.2428 58.142 68.2428C60.5764 68.2428 62.5437 70.4347 62.5437 73.1386C62.5437 75.8426 60.5764 78.0345 58.142 78.0345C55.7075 78.0345 53.7403 75.8426 53.7403 73.1386ZM103.453 40.9249C102.752 40.0266 102.025 39.1553 101.27 38.3108C100.435 37.3766 99.5455 36.4693 98.6292 35.5979C99.6084 34.5289 100.165 33.8282 100.174 33.8282C100.453 34.1157 100.731 34.4032 101.001 34.6906C102.411 36.1908 103.723 37.7988 104.926 39.4966C104.432 39.9907 103.938 40.4758 103.453 40.916V40.9249ZM122.758 87.9249C124.555 88.2843 131.157 84.7988 131.669 83.5681C131.804 84.4215 131.822 85.2929 131.723 86.1642C131.481 90.5301 126.791 92.677 123.971 94.0245C123.773 94.1143 123.863 94.4108 124.079 94.3928C125.857 94.2221 128.48 93.0633 129.747 92.2099C128.049 100.43 119.955 103.852 113.577 101.876C118.832 101.049 120.8 95.8032 119.3 92.3536C118.545 90.6199 117.269 89.1736 114.386 89.3083C110.379 89.8294 109.598 94.5545 110.954 94.1862C111.197 94.1233 111.376 93.8987 111.43 93.6562C112.14 90.1707 116.739 90.009 117.97 93.3238C119.794 99.8636 109.912 102.073 107.037 96.5578C106.723 96.0278 106.481 95.5157 106.292 95.0037C108.78 91.6619 110.837 87.9609 112.382 83.9723C113.892 83.074 115.491 82.3464 116.946 81.8074C120.97 80.2084 125.219 77.2439 129.459 75.8515C130.322 75.5641 131.786 75.6809 132.505 76.2468C136.116 79.0945 126.261 86.5864 122.758 87.5027C122.524 87.5656 122.533 87.898 122.767 87.9519L122.758 87.9249Z"/>
  <path d="M77.6082 89.0843C76.9255 91.7074 73.404 92.6596 71.4906 90.7462C69.5952 92.6686 66.0469 91.7164 65.3731 89.0843C65.2653 88.7339 65.4629 88.3656 65.8133 88.2578C66.1636 88.159 66.532 88.3566 66.6398 88.707C67.1339 90.6563 69.8737 91.0516 70.9248 89.3538C70.9697 89.2819 71.0235 89.228 71.0954 89.1831C71.0954 89.1831 71.0774 89.1921 71.0774 89.2011C71.0864 89.1921 71.1044 89.1741 71.1134 89.1651C71.1134 89.1651 71.1493 89.1472 71.1582 89.1382C71.4188 88.9945 71.7871 89.0394 71.9757 89.2909C73.0178 91.0336 75.8026 90.6923 76.3147 88.707C76.5393 87.8716 77.8418 88.2578 77.5902 89.0843H77.6082Z" stroke="white" stroke-width="6.47" stroke-linecap="round" stroke-linejoin="round"/>
  <path d="M71.121 89.1562C71.121 89.1562 71.0945 89.1738 71.0858 89.1914C71.0858 89.1914 71.0946 89.1738 71.1034 89.1738C71.1034 89.1738 71.1122 89.165 71.121 89.1562Z" stroke="white" stroke-width="6.47" stroke-linecap="round" stroke-linejoin="round"/>
  <path d="M71.121 89.1562C71.121 89.1562 71.0945 89.1738 71.0858 89.1914C71.0858 89.1914 71.0946 89.1738 71.1034 89.1738C71.1034 89.1738 71.1122 89.165 71.121 89.1562Z" stroke="white" stroke-width="6.47" stroke-linecap="round" stroke-linejoin="round"/>
  <path d="M43.7427 112.375C42.9971 111.845 42.0447 111.935 41.1824 112.546C38.9456 114.118 36.7088 115.681 34.463 117.244C33.6994 117.783 32.873 118.241 32.1813 118.861C31.3638 119.58 31.6512 120.945 32.6394 121.403C33.2502 121.682 33.8971 121.682 34.4989 121.332C35.002 121.035 35.4691 120.676 35.9812 120.397C36.2058 120.272 36.5741 120.173 36.7717 120.263C37.67 120.685 38.5503 121.17 39.3947 121.682C39.5834 121.799 39.7271 122.14 39.7271 122.383C39.7271 122.904 39.6373 123.425 39.5834 123.955C39.4397 125.446 40.9489 126.344 42.2694 125.626C42.9521 125.257 43.0419 124.592 43.1318 123.928C43.5809 120.847 44.0121 117.756 44.4702 114.675C44.605 113.759 44.5152 112.941 43.7247 112.375H43.7427ZM40.6704 118.268C40.6165 118.367 39.826 118.08 39.3679 117.963C39.3409 117.828 39.3229 117.684 39.2959 117.55C39.8529 117.092 40.4188 116.633 40.9758 116.166L41.3081 116.355C41.1105 117.002 40.9758 117.675 40.6614 118.268H40.6704Z" fill="white"/>
  <path d="M66.811 119.726C66.0294 120.049 65.7869 120.75 65.7151 121.522C65.6342 122.295 65.5354 123.076 65.4635 123.849C65.4276 124.217 65.2749 124.379 64.8976 124.316C64.0711 124.181 63.2356 124.047 62.4002 123.939C61.8612 123.876 61.7804 123.597 61.8882 123.121C62.0858 122.304 62.3373 121.495 62.4092 120.669C62.4541 120.193 62.2925 119.627 62.041 119.214C61.7355 118.702 61.1426 118.54 60.5318 118.666C59.8939 118.8 59.4089 119.169 59.2382 119.806C58.9777 120.786 58.7621 121.774 58.5285 122.762C57.9985 124.999 57.4595 127.236 56.9475 129.472C56.6959 130.568 57.244 131.341 58.3489 131.574C59.2921 131.781 60.1814 131.188 60.397 130.191C60.5856 129.356 60.7654 128.511 60.9181 127.676C61.0079 127.191 61.2324 127.029 61.7355 127.128C62.5799 127.289 63.4334 127.424 64.2868 127.532C64.9605 127.622 65.0324 127.694 64.9425 128.385C64.8347 129.176 64.7269 129.966 64.646 130.766C64.5202 132.122 65.724 133.066 67.0176 132.634C67.871 132.347 68.1944 131.808 68.2752 130.676C68.3651 129.41 68.4908 128.152 68.6076 126.894C68.7693 125.089 68.931 123.283 69.0927 121.522C69.1107 120.103 68.0058 119.241 66.82 119.726H66.811Z" fill="white"/>
  <path d="M53.7946 116.841C53.031 116.536 52.2495 116.275 51.4769 116.006C50.4708 115.655 49.6623 116.006 49.2132 116.976C48.7999 117.883 48.4047 118.799 48.0004 119.707C47.1201 121.701 46.2127 123.695 45.3593 125.708C44.9102 126.759 45.2874 127.693 46.2307 128.106C47.1739 128.519 48.1531 128.142 48.6202 127.154C48.8628 126.642 49.0784 126.121 49.294 125.6C49.4736 125.16 49.7611 124.998 50.2193 125.178C50.381 125.24 50.5606 125.267 50.7313 125.321C53.7227 126.256 56.6602 124.118 56.5525 120.964C56.7141 118.961 55.4654 117.515 53.7946 116.85V116.841ZM53.1388 120.982C53.1568 121.476 52.9142 121.944 52.4291 122.096C52.0428 122.213 51.5758 122.069 51.1536 121.989C51.0727 121.971 50.9739 121.656 51.0098 121.521C51.1176 121.153 51.2793 120.794 51.45 120.443C51.5937 120.138 51.5488 119.644 52.1327 119.761C52.6807 119.868 53.1118 120.309 53.1388 120.821C53.1388 120.857 53.1388 120.902 53.1388 120.991V120.982Z" fill="white"/>
  <path d="M83.6637 125.016C83.4302 123.596 83.2416 122.159 82.9182 120.758C82.6038 119.365 80.9868 118.889 79.9807 119.868C79.6662 120.174 79.4866 120.65 79.3159 121.081C78.8218 122.303 78.3547 123.543 77.8786 124.773C77.7978 124.773 77.7259 124.791 77.6451 124.8C77.3486 124.306 77.0432 123.821 76.7467 123.327C76.1808 122.393 75.6687 121.423 75.0309 120.551C74.5368 119.868 73.6924 119.707 72.9737 120.021C72.2641 120.336 71.9407 120.955 71.9048 121.71C71.8509 122.959 71.806 124.198 71.797 125.447C71.779 127.28 71.788 129.112 71.797 130.945C71.797 131.25 71.8329 131.573 71.9138 131.87C72.1294 132.66 72.7582 133.083 73.5846 133.047C74.4021 133.011 75.0489 132.526 75.1657 131.744C75.2555 131.133 75.2375 130.504 75.2375 129.885C75.2465 129.085 75.2375 128.277 75.2375 127.468C75.6777 127.881 75.9921 128.34 76.3334 128.78C77.2767 129.992 78.7679 129.93 79.6033 128.636C79.792 128.34 79.9088 128.007 80.0705 127.693C80.1693 127.504 80.286 127.324 80.3938 127.145C80.5825 127.414 80.6364 127.63 80.6724 127.854C80.8071 128.843 80.9328 129.822 81.0766 130.81C81.2383 131.888 82.1007 132.562 83.0888 132.382C84.1398 132.193 84.6789 131.313 84.4812 130.208C84.1758 128.483 83.9152 126.75 83.6368 125.016H83.6637Z" fill="white"/>
  <path d="M102.852 113.983C102.915 114.145 103.013 114.298 103.103 114.442C104.172 116.166 105.286 117.864 106.31 119.616C106.993 120.775 106.607 121.727 105.385 122.284C104.154 122.841 103.04 122.482 102.421 121.278C101.486 119.472 100.579 117.658 99.6628 115.852C99.3394 115.214 98.8273 114.828 98.0997 114.774C97.4439 114.729 96.9678 115.034 96.6265 115.564C96.1593 116.274 96.4467 116.957 96.7611 117.622C97.4888 119.194 98.2344 120.766 98.971 122.338C99.6089 123.694 100.471 124.835 101.926 125.446C103.84 126.254 105.664 125.94 107.388 124.97C109.05 124.036 110.11 122.643 110.128 120.505C110.11 119.58 109.823 118.601 109.248 117.711C108.556 116.651 107.864 115.582 107.155 114.54C106.616 113.75 106.095 112.941 105.475 112.223C104.963 111.621 104.038 111.567 103.436 111.971C102.789 112.393 102.555 113.22 102.87 114.001L102.852 113.983Z" fill="white"/>
  <path d="M91.8657 118.584C91.5692 118.243 91.192 117.893 90.7787 117.74C89.3594 117.228 88.2814 118.009 88.1286 119.617C87.9669 121.324 87.8502 123.04 87.6705 124.738C87.4998 126.328 87.2663 127.909 87.0777 129.4C87.0687 130.532 87.6346 131.268 88.533 131.385C89.4942 131.511 90.2308 130.972 90.4644 129.93C90.5722 129.454 90.644 128.969 90.671 128.484C90.6979 127.99 90.9404 127.765 91.3985 127.648C92.1352 127.469 92.8808 127.28 93.5995 127.046C94.1025 126.885 94.4618 127.001 94.7762 127.406C95.0277 127.729 95.3152 128.026 95.5847 128.331C96.3932 129.238 97.5251 129.328 98.3156 128.556C99.0612 127.819 99.0073 126.975 98.1989 126.022C96.0878 123.543 93.9947 121.046 91.8657 118.575V118.584ZM91.1381 124.307C91.0123 123.669 90.8955 123.022 90.7698 122.384C91.0392 122.303 91.3088 122.213 91.5693 122.133C91.8477 122.708 92.1172 123.282 92.3957 123.857C91.9734 124.01 91.5513 124.154 91.1381 124.307Z" fill="white"/>
  <path d="M85.7839 122.964C85.7839 122.964 85.7839 122.883 85.7839 122.847C85.9366 121.401 86.0983 119.955 86.2511 118.508C86.4936 117.601 86.9248 116.829 87.7333 116.272C89.6108 114.96 92.135 115.517 93.3926 117.17C93.7969 117.7 94.2012 118.221 94.6055 118.751C94.7222 118.895 94.8569 119.02 94.9827 119.155C95.0276 119.128 95.0725 119.101 95.1174 119.083C95.0456 118.886 94.9737 118.679 94.8929 118.49C94.1922 116.945 94.1113 115.454 95.2073 114.026C95.9439 113.083 97.5069 112.499 98.6658 112.822C99.2946 112.993 99.8965 113.235 100.579 113.469C100.678 113.02 100.759 112.508 100.921 112.023C101.28 110.963 101.999 110.226 103.068 109.885C105.161 109.22 106.921 110.325 107.829 111.879C108.853 113.622 110.146 115.212 111.161 116.963C113.021 120.179 112.293 123.889 109.32 126.144C107.82 127.285 106.095 127.761 104.307 127.923C103.391 128.004 102.43 127.662 101.504 127.438C101.091 127.339 100.921 127.402 100.858 127.806C100.705 128.848 100.256 129.719 99.3845 130.366C97.7136 131.606 95.3779 131.238 94.0844 129.755C93.8598 129.504 93.7161 129.154 93.249 129.243C92.728 129.342 92.5573 129.684 92.4854 130.142C92.3058 131.274 91.8296 132.199 90.8235 132.846C89.7095 133.564 87.8052 133.609 86.7182 132.855C86.3409 132.594 86.1343 132.612 85.8559 132.98C84.3646 134.966 81.0318 134.957 79.6395 132.729C79.5047 132.513 79.37 132.28 79.3341 132.046C79.2532 131.57 79.0106 131.471 78.5884 131.606C78.4626 131.651 78.3099 131.705 78.1842 131.678C77.3038 131.48 77.196 132.073 77.0073 132.702C76.666 133.852 75.8306 134.543 74.6897 134.885C73.3333 135.289 72.0846 135.091 71.0246 134.148C70.6114 133.78 70.3238 133.277 69.9196 132.774C68.635 134.714 66.8384 135.253 64.7094 134.391C63.6404 133.96 62.9127 133.088 62.742 131.875C62.742 131.112 62.742 130.348 62.742 129.585H62.5444C62.4546 130.034 62.3648 130.483 62.275 130.932C61.9516 132.648 59.9663 133.897 58.0528 133.564C55.816 133.178 55.0166 131.875 54.8369 130.115C54.7561 129.315 55.1064 128.48 55.2591 127.662C55.304 127.429 55.34 127.186 55.3849 126.899C54.765 127.06 54.253 127.258 53.723 127.33C52.9145 127.438 52.097 127.501 51.2885 127.51C50.9112 127.51 50.7046 127.617 50.5519 127.941C49.8961 129.36 48.7732 130.214 47.2371 130.294C45.647 130.375 44.1559 129.71 43.4462 128.076C43.2396 127.608 43.042 127.555 42.6108 127.698C41.3711 128.111 40.2033 127.968 39.1074 127.222C37.8587 126.369 37.4814 125.12 37.5443 123.719C37.5623 123.279 37.4904 123.045 37.1041 122.829C36.7358 122.623 36.4483 122.497 36.0531 122.802C34.4451 124.024 32.4598 123.907 30.9955 122.838C30.196 122.254 29.5313 120.269 29.711 119.371C29.9715 118.095 30.6991 117.242 31.7232 116.568C33.5648 115.355 35.4152 114.152 37.2478 112.921C38.1551 112.31 39.0085 111.627 39.8889 110.972C41.8293 109.516 44.6859 109.759 45.9705 111.843C46.5095 112.714 46.7521 113.684 46.5365 114.745C46.3029 115.885 46.1412 117.044 45.9525 118.203C45.8717 118.58 45.7908 118.967 45.71 119.344C45.7998 119.362 45.8897 119.38 45.9795 119.398C46.0514 119.155 46.1142 118.913 46.1861 118.661C46.761 117.511 47.2281 116.29 47.9378 115.23C48.7373 114.053 50.0668 113.613 51.4143 113.972C52.9504 114.385 54.4507 114.987 55.87 115.697C56.5797 116.056 57.0917 116.82 57.6486 117.43C57.9002 117.709 58.0529 117.862 58.3942 117.547C60.1908 115.885 63.2182 116.559 64.1704 118.724C64.2154 118.823 64.2962 118.913 64.413 119.074C65.2664 118.068 66.3533 117.502 67.602 117.574C68.8147 117.646 69.9017 118.185 70.6293 119.335C71.5995 118.194 72.7942 117.763 74.2046 117.907C75.6599 118.059 76.5851 118.958 77.3397 120.197C77.6362 119.703 77.8518 119.317 78.1034 118.949C78.822 117.871 79.909 117.404 81.1397 117.314C82.7926 117.197 84.4994 118.535 84.8497 120.152C85.0564 121.105 85.218 122.057 85.4067 123.009C85.4336 123.395 85.4606 123.782 85.4875 124.159C85.5863 124.159 85.6761 124.159 85.7749 124.159V123L85.7839 122.964ZM77.8967 124.761C77.8158 124.761 77.744 124.779 77.6632 124.788C77.3668 124.294 77.0613 123.809 76.7649 123.314C76.1989 122.38 75.6869 121.41 75.0491 120.539C74.555 119.856 73.7105 119.694 72.9919 120.009C72.2822 120.323 71.9589 120.943 71.9229 121.697C71.869 122.946 71.8241 124.186 71.8151 125.434C71.7972 127.267 71.8062 129.1 71.8151 130.932C71.8151 131.238 71.8511 131.561 71.9319 131.857C72.1475 132.648 72.7763 133.07 73.6028 133.034C74.4203 132.998 75.067 132.513 75.1838 131.732C75.2737 131.121 75.2557 130.492 75.2557 129.872C75.2646 129.073 75.2557 128.264 75.2557 127.456C75.6958 127.869 76.0102 128.327 76.3516 128.767C77.2948 129.98 78.786 129.917 79.6215 128.624C79.8101 128.327 79.9269 127.995 80.0886 127.68C80.1874 127.492 80.3042 127.312 80.412 127.132C80.6006 127.402 80.6546 127.617 80.6905 127.842C80.8253 128.83 80.951 129.809 81.0947 130.797C81.2564 131.875 82.1188 132.549 83.1069 132.369C84.158 132.181 84.697 131.3 84.4994 130.196C84.194 128.471 83.9334 126.737 83.6549 125.003C83.4213 123.584 83.2327 122.147 82.9093 120.745C82.5949 119.353 80.9779 118.877 79.9718 119.856C79.6574 120.161 79.4778 120.637 79.3071 121.069C78.813 122.29 78.3459 123.53 77.8698 124.761H77.8967ZM69.0932 121.509C69.1112 120.089 68.0062 119.227 66.8204 119.712C66.0389 120.036 65.7964 120.736 65.7245 121.509C65.6437 122.281 65.5448 123.063 65.473 123.835C65.437 124.204 65.2843 124.365 64.907 124.303C64.0806 124.168 63.2451 124.033 62.4097 123.925C61.8707 123.862 61.7899 123.584 61.8977 123.108C62.0953 122.29 62.3468 121.482 62.4187 120.655C62.4636 120.179 62.302 119.613 62.0504 119.2C61.745 118.688 61.1521 118.526 60.5412 118.652C59.9034 118.787 59.4184 119.155 59.2477 119.793C58.9872 120.772 58.7715 121.76 58.538 122.749C58.008 124.985 57.469 127.222 56.9569 129.459C56.7054 130.555 57.2533 131.327 58.3582 131.561C59.3015 131.768 60.1908 131.175 60.4064 130.178C60.5951 129.342 60.7748 128.498 60.9275 127.662C61.0174 127.177 61.2419 127.016 61.7449 127.114C62.5893 127.276 63.4428 127.411 64.2962 127.519C64.97 127.608 65.0418 127.68 64.952 128.372C64.8442 129.163 64.7363 129.953 64.6555 130.753C64.5297 132.109 65.7335 133.052 67.027 132.621C67.8804 132.334 68.2039 131.795 68.2847 130.663C68.3745 129.396 68.5003 128.138 68.6171 126.881C68.7788 125.075 68.9405 123.27 69.1022 121.509H69.0932ZM110.119 120.494C110.101 119.568 109.814 118.589 109.239 117.7C108.547 116.64 107.856 115.571 107.146 114.529C106.607 113.738 106.086 112.93 105.466 112.211C104.954 111.609 104.029 111.555 103.427 111.96C102.78 112.382 102.547 113.208 102.861 113.99C102.924 114.152 103.023 114.304 103.112 114.448C104.181 116.173 105.295 117.871 106.319 119.622C107.002 120.781 106.616 121.733 105.394 122.29C104.164 122.847 103.05 122.488 102.43 121.284C101.496 119.479 100.588 117.664 99.672 115.858C99.3486 115.221 98.8364 114.834 98.1088 114.78C97.453 114.736 96.977 115.041 96.6357 115.571C96.1685 116.281 96.4559 116.963 96.7703 117.628C97.498 119.2 98.2436 120.772 98.9803 122.344C99.6181 123.701 100.48 124.842 101.936 125.452C103.849 126.261 105.673 125.947 107.397 124.976C109.059 124.042 110.119 122.65 110.137 120.512L110.119 120.494ZM39.6014 123.952C39.4576 125.443 40.9669 126.342 42.2874 125.623C42.9702 125.255 43.06 124.59 43.1498 123.925C43.5989 120.844 44.0301 117.754 44.4883 114.673C44.623 113.756 44.5332 112.939 43.7427 112.373C42.9971 111.843 42.0448 111.933 41.1824 112.544C38.9456 114.116 36.7088 115.679 34.463 117.242C33.6994 117.781 32.8731 118.239 32.1814 118.859C31.3639 119.577 31.6513 120.943 32.6394 121.401C33.2503 121.68 33.8971 121.68 34.499 121.329C35.002 121.033 35.4692 120.673 35.9812 120.395C36.2058 120.269 36.5741 120.17 36.7718 120.26C37.6701 120.682 38.5503 121.167 39.3948 121.68C39.5834 121.796 39.7271 122.138 39.7271 122.38C39.7271 122.901 39.6374 123.422 39.5835 123.952H39.6014ZM87.0775 129.405C87.0686 130.537 87.6345 131.274 88.5328 131.39C89.494 131.516 90.2307 130.977 90.4642 129.935C90.572 129.459 90.6439 128.974 90.6708 128.489C90.6978 127.995 90.9403 127.77 91.3984 127.653C92.135 127.474 92.8807 127.285 93.5993 127.051C94.1024 126.89 94.4617 127.007 94.7761 127.411C95.0276 127.734 95.3151 128.031 95.5846 128.336C96.3931 129.243 97.525 129.333 98.3155 128.561C99.0611 127.824 99.0072 126.98 98.1987 126.027C96.0877 123.548 93.9946 121.051 91.8655 118.58C91.5691 118.239 91.1918 117.889 90.7786 117.736C89.3593 117.224 88.2812 118.005 88.1285 119.613C87.9668 121.32 87.85 123.036 87.6704 124.734C87.4997 126.324 87.2662 127.905 87.0775 129.396V129.405ZM56.5527 120.952C56.7144 118.949 55.4657 117.502 53.7948 116.838C53.0313 116.532 52.2498 116.272 51.4772 116.002C50.4711 115.652 49.6626 116.002 49.2134 116.972C48.8002 117.88 48.405 118.796 48.0007 119.703C47.1204 121.697 46.213 123.692 45.3596 125.704C44.9105 126.755 45.2877 127.689 46.231 128.102C47.1742 128.516 48.1534 128.138 48.6205 127.15C48.8631 126.638 49.0787 126.117 49.2942 125.596C49.4739 125.156 49.7614 124.994 50.2195 125.174C50.3812 125.237 50.5609 125.264 50.7315 125.318C53.7229 126.252 56.6605 124.114 56.5527 120.961V120.952Z"/>
  <path d="M39.2961 117.557C39.853 117.099 40.419 116.641 40.9759 116.174C41.0837 116.237 41.2005 116.3 41.3083 116.362C41.1107 117.009 40.9759 117.683 40.6615 118.276C40.6076 118.375 39.8172 118.087 39.359 117.97C39.3321 117.836 39.314 117.692 39.2871 117.557H39.2961Z"/>
  <path d="M91.569 122.121C91.8475 122.696 92.117 123.271 92.3954 123.846C91.9732 123.999 91.5511 124.142 91.1379 124.295C91.0121 123.657 90.8953 123.01 90.7695 122.373C91.039 122.292 91.3085 122.202 91.569 122.121Z"/>
  <path d="M53.1305 120.977C53.1485 121.472 52.9059 121.939 52.4208 122.091C52.0345 122.208 51.5675 122.064 51.1453 121.984C51.0644 121.966 50.9656 121.651 51.0015 121.516C51.1093 121.148 51.271 120.789 51.4417 120.439C51.5854 120.133 51.5405 119.639 52.1244 119.756C52.6724 119.864 53.1036 120.304 53.1305 120.816C53.1305 120.852 53.1305 120.897 53.1305 120.986V120.977Z"/>
  <path d="M40.3823 40.0896C41.2177 39.0206 42.1249 37.9965 43.1041 37.0622C42.6729 36.4693 42.2508 35.8226 41.8196 35.1309C39.9062 37.2239 38.1814 39.5147 36.6632 41.9581C37.2022 42.4072 37.7321 42.8294 38.2532 43.2157C38.9 42.1198 39.6008 41.0777 40.3823 40.0806V40.0896Z" fill="white"/>
  <path d="M102.33 33.4059C102.33 33.4059 102.33 33.3609 102.348 33.343C102.636 31.9057 102.995 29.3994 102.762 26.4619C102.537 23.5783 101.54 20.7216 100.201 19.2124C99.4019 18.3141 98.3059 18.2153 97.3447 18.5836C94.4791 19.994 91.865 22.635 90.1851 24.5844C94.3443 26.6236 98.1533 29.3275 101.468 32.5525C101.756 32.8309 102.043 33.1184 102.321 33.4059H102.33Z" fill="white"/>
  <path d="M30.7791 83.9975C29.225 83.0633 27.5811 82.3087 26.081 81.7517C22.0565 80.1527 17.8074 77.1883 13.5673 75.7959C12.705 75.5084 11.2317 75.6252 10.522 76.1911C6.91079 79.0388 16.7654 86.5308 20.2689 87.4471C20.5024 87.5099 20.4934 87.8423 20.2599 87.8962C18.4632 88.2556 11.8606 84.7701 11.3485 83.5394C11.2138 84.3928 11.1959 85.2641 11.2947 86.1355C11.5372 90.5013 16.2264 92.6483 19.0472 93.9958C19.2448 94.0856 19.1549 94.3821 18.9393 94.3641C17.1606 94.1934 14.5376 93.0346 13.2709 92.1812C14.9598 100.401 23.0626 103.823 29.4407 101.847C24.1855 101.021 22.2182 95.7745 23.7184 92.3249C24.473 90.5912 25.7485 89.1449 28.6321 89.2796C32.6386 89.8007 33.4202 94.5258 32.0638 94.1575C31.8212 94.0946 31.6415 93.87 31.5876 93.6275C30.878 90.142 26.2786 89.9803 25.0479 93.2951C23.2243 99.8349 33.1058 102.045 35.9804 96.5291C36.3128 95.9721 36.5733 95.4151 36.762 94.8851C34.3185 91.5883 32.2973 87.9411 30.7701 84.0245L30.7791 83.9975Z" fill="white"/>
  <path d="M104.226 71.5049C104.199 69.1603 103.929 66.8876 103.444 64.6867C100.444 63.1056 97.102 61.0126 93.7063 58.2457C90.2568 55.443 87.5169 52.5414 85.3609 49.9094C84.3728 48.6876 83.5014 47.5288 82.7558 46.4508C82.4953 46.0825 82.2528 45.7322 82.0282 45.3908C81.8036 45.8579 81.5701 46.343 81.3455 46.8461C80.7167 48.1756 80.1148 49.6309 79.5309 51.2029C78.8571 53.0086 78.2104 54.9759 77.6444 57.0779C75.9376 63.447 75.4704 69.0974 75.4525 73.4453C71.3471 70.8402 67.9874 67.7589 65.3374 64.543C62.876 61.291 60.9896 57.6259 59.9026 53.7452L59.5073 52.254L59.3007 51.5084L59.2289 51.167L59.139 50.7628L58.7977 49.2626L58.5462 47.7354C58.4833 47.2953 58.4293 46.8641 58.3844 46.4239C58.2137 44.8159 58.1688 43.181 58.2676 41.555C58.4383 37.4048 59.3187 33.2905 60.6212 29.248C58.4473 32.9222 57.2525 37.1622 56.8124 41.4562C56.6866 42.5342 56.6687 43.6122 56.6327 44.6901C56.6327 45.0854 56.6328 45.4806 56.6507 45.8669C56.6507 46.0107 56.6507 46.1634 56.6597 46.3161C56.6777 46.8641 56.6956 47.403 56.7495 47.942L56.9022 49.577C56.9471 49.8285 56.983 50.08 57.0279 50.3226C56.9202 50.4394 56.8124 50.5561 56.6956 50.6819C54.3869 53.1972 51.6201 55.8293 48.3413 58.3895C45.0984 60.9227 41.9542 62.935 39.0796 64.534C38.5496 66.8606 38.2621 69.2861 38.2531 71.7744C40.4001 70.8671 41.2356 69.331 43.5083 67.3547C47.3172 64.0489 52.5903 62.5217 57.5221 64.8124C61.7801 66.0611 64.9512 70.8851 64.9512 76.6433C64.9512 83.3537 60.6482 88.7886 55.3391 88.7886C50.03 88.7886 45.7271 83.3537 45.7271 76.6433C45.7271 73.2656 46.8142 70.2113 48.5749 68.0105C46.8231 69.0256 45.3858 70.4898 44.3887 72.2954C42.3046 76.0774 42.4124 81.5571 45.0894 86.8931C41.3164 83.0663 40.1755 78.7633 40.7324 74.9275C40.463 74.8377 40.1845 74.7299 39.8881 74.6131C39.3042 74.3706 38.7832 74.0921 38.316 73.7956C38.9987 85.5366 45.817 95.6248 55.6086 100.907C60.2709 103.422 65.589 104.85 71.2484 104.85C77.5546 104.85 83.4385 103.09 88.4511 100.018C97.3175 94.5917 103.417 85.1054 104.163 74.137C103.857 74.3077 103.525 74.4694 103.175 74.6131C102.887 74.7299 102.609 74.8377 102.33 74.9275C102.896 78.7633 101.746 83.0663 97.9734 86.8931C100.65 81.5481 100.758 76.0774 98.674 72.2954C97.6768 70.4898 96.2306 69.0256 94.4879 68.0105C96.2486 70.2113 97.3355 73.2656 97.3355 76.6433C97.3355 83.3537 93.0326 88.7886 87.7235 88.7886C82.4145 88.7886 78.1116 83.3537 78.1116 76.6433C78.1116 70.8851 81.2825 66.0611 85.5406 64.8124C90.4723 62.5217 95.7455 64.0489 99.5544 67.3547C101.612 69.1423 102.492 70.5707 104.244 71.5049H104.226ZM77.6264 89.067C76.9437 91.6901 73.4222 92.6423 71.5088 90.7289C69.6134 92.6513 66.0651 91.6991 65.3913 89.067C65.2835 88.7167 65.4812 88.3484 65.8315 88.2406C66.1819 88.1418 66.5502 88.3394 66.658 88.6897C67.1521 90.6391 69.8919 91.0343 70.9429 89.3365C70.9878 89.2647 71.0418 89.2108 71.1136 89.1658C71.1136 89.1658 71.0956 89.1748 71.0956 89.1838C71.1046 89.1748 71.1226 89.1569 71.1316 89.1479C71.1316 89.1479 71.1675 89.1299 71.1765 89.1209C71.437 88.9772 71.8053 89.0221 71.994 89.2737C73.036 91.0164 75.8208 90.675 76.3328 88.6897C76.5574 87.8543 77.86 88.2406 77.6084 89.067H77.6264Z" fill="white"/>
  <path d="M102.465 41.7782C101.773 40.8889 101.046 40.0175 100.3 39.1821C99.4737 38.2748 98.6203 37.3944 97.7309 36.541C94.8204 39.5414 89.664 44.1588 84.0674 45.7847C84.813 46.8627 85.6844 48.0215 86.6816 49.2432C93.7603 47.2849 98.1262 45.4613 102.465 41.7782Z" fill="white"/>
  <path d="M43.9126 38.1309C43.0233 38.9932 42.1968 39.9185 41.4243 40.9067C40.6607 41.8948 39.96 42.9279 39.3402 44.0148C43.9306 47.1769 48.3683 48.5154 55.3662 50.0246C55.483 49.9078 55.5907 49.791 55.6985 49.6653C55.6536 49.4227 55.6087 49.1712 55.5728 48.9197L55.4201 47.2847C55.3572 46.7457 55.3392 46.1978 55.3302 45.6588C55.3302 45.515 55.3303 45.3623 55.3123 45.2186C49.7068 43.2692 46.5896 41.4367 43.9216 38.1399L43.9126 38.1309Z" fill="white"/>
  <path d="M59.8667 47.735L60.1093 49.2621L60.4507 50.7623L60.5405 51.1666C63.3163 51.6427 65.2387 51.9301 67.8888 52.011C68.1313 52.011 68.3828 52.02 68.6433 52.0289C68.7691 52.0289 68.9038 52.0289 69.0385 52.0289C69.1733 52.0289 69.3081 52.0289 69.4428 52.0289C69.6045 52.0289 69.7661 52.0289 69.9189 52.0289C70.0716 52.0289 70.2243 52.0289 70.377 52.0289C70.5297 52.0289 70.6735 52.0289 70.8262 52.02C70.9699 52.02 71.1137 52.02 71.2575 52.011C71.4102 52.011 71.5629 52.002 71.7066 51.993C73.9434 51.8942 75.7131 51.6247 78.1834 51.2115C78.7674 49.6394 79.3782 48.1841 79.9981 46.8546C76.6294 47.708 74.3566 48.1752 70.6106 48.1752C66.2897 48.1752 63.487 47.5643 59.6961 46.4414C59.741 46.8816 59.7949 47.3128 59.8667 47.753V47.735Z" fill="white"/>
  <path d="M52.4286 24.8357C50.7667 22.8774 48.0449 20.0567 45.0535 18.5834C44.0923 18.2151 42.9963 18.3229 42.1968 19.2123C40.8583 20.7214 39.8612 23.5781 39.6366 26.4617C39.3671 29.9202 39.9151 32.7948 40.2115 34.0165C43.724 30.2705 47.8652 27.1444 52.4286 24.8357Z" fill="white"/>
  <path d="M122.758 87.4507C126.261 86.5344 136.107 79.0425 132.505 76.1948C131.786 75.6378 130.322 75.5211 129.459 75.7995C125.219 77.1919 120.97 80.1564 116.946 81.7554C115.491 82.2944 113.892 83.022 112.382 83.9203C110.837 87.9089 108.78 91.6099 106.292 94.9517C106.481 95.4637 106.723 95.9757 107.037 96.5058C109.912 102.03 119.794 99.8116 117.97 93.2718C116.748 89.957 112.149 90.1187 111.43 93.6042C111.376 93.8557 111.206 94.0713 110.954 94.1342C109.598 94.5025 110.379 89.7774 114.386 89.2563C117.269 89.1126 118.545 90.5679 119.3 92.3016C120.809 95.7512 118.841 100.997 113.577 101.824C119.946 103.8 128.049 100.386 129.747 92.1579C128.48 93.0113 125.857 94.1791 124.079 94.3408C123.863 94.3588 123.773 94.0713 123.971 93.9725C126.791 92.625 131.481 90.478 131.723 86.1122C131.822 85.2409 131.804 84.3695 131.669 83.5161C131.148 84.7468 124.546 88.2323 122.758 87.8729C122.524 87.828 122.516 87.4867 122.749 87.4238L122.758 87.4507Z" fill="white"/>
  <path d="M90.1669 82.1739C90.1669 83.4046 91.2 84.3928 92.4666 84.3928C93.7332 84.3928 94.7663 83.3956 94.7663 82.1739C94.7663 80.9522 93.7332 79.9551 92.4666 79.9551C91.2 79.9551 90.1669 80.9522 90.1669 82.1739Z" fill="white"/>
  <path d="M100.183 33.8105C100.183 33.8105 99.6263 34.5112 98.6381 35.5802C99.5544 36.4516 100.435 37.3589 101.279 38.2932C102.034 39.1376 102.761 40.0089 103.462 40.9073C103.956 40.4581 104.441 39.982 104.935 39.4879C103.732 37.7901 102.411 36.1731 101.01 34.6819C100.74 34.3945 100.462 34.107 100.183 33.8195V33.8105Z" fill="white"/>
  <path d="M58.151 78.0065C60.5854 78.0065 62.5528 75.8146 62.5528 73.1107C62.5528 70.4067 60.5854 68.2148 58.151 68.2148C55.7165 68.2148 53.7492 70.4067 53.7492 73.1107C53.7492 75.8146 55.7165 78.0065 58.151 78.0065Z" fill="white"/>
  <path d="M80.4742 73.1107C80.4742 75.8146 82.4505 78.0065 84.876 78.0065C87.3014 78.0065 89.2777 75.8146 89.2777 73.1107C89.2777 70.4067 87.3104 68.2148 84.876 68.2148C82.4415 68.2148 80.4742 70.4067 80.4742 73.1107Z" fill="white"/>
  <path d="M50.5602 84.3928C51.8303 84.3928 52.8599 83.3994 52.8599 82.1739C52.8599 80.9485 51.8303 79.9551 50.5602 79.9551C49.2902 79.9551 48.2605 80.9485 48.2605 82.1739C48.2605 83.3994 49.2902 84.3928 50.5602 84.3928Z" fill="white"/>
  <path d="M133.313 81.7265C134.355 80.2982 135.164 78.7262 134.778 76.7588C133.223 71.1713 127.052 74.7017 123.692 76.3277C121.977 77.1182 117.647 78.9957 115.994 79.7772C115.104 80.0647 114.269 80.3791 113.478 80.7204C114.853 76.2378 115.598 71.4677 115.598 66.509C115.598 60.9574 114.673 55.6304 112.957 50.6986C113.047 47.5455 113.047 43.6558 112.787 39.2271C112.625 36.4154 112.445 33.3791 111.799 29.3995C110.918 24.0455 109.454 18.467 106.319 13.0322C104.684 10.2204 103.39 8.79211 101.567 8.28007C100.866 8.08244 99.4017 7.83091 95.8713 9.23229C92.0804 10.7325 89.5383 12.7537 87.9842 13.9125C84.7592 16.2931 82.6122 18.2244 79.6567 21.0631C77.0337 20.5421 74.3117 20.2726 71.5449 20.2726C68.5625 20.2726 65.643 20.587 62.8313 21.1799C59.8129 18.2873 57.6479 16.329 54.3781 13.9125C52.824 12.7627 50.2817 10.7325 46.4908 9.23229C42.9604 7.83091 41.5052 8.08244 40.7955 8.28007C38.9719 8.79211 37.6783 10.2204 36.0434 13.0322C32.9082 18.458 31.435 24.0455 30.5637 29.3995C29.9169 33.3791 29.7372 36.4154 29.5755 39.2271C29.2611 44.6619 29.333 49.2793 29.4857 52.7288C28.2011 57.0767 27.5004 61.712 27.5004 66.509C27.5004 71.306 28.246 76.2827 29.6384 80.7743C28.8209 80.415 27.9406 80.0826 27.0153 79.7772C25.3624 78.9957 21.0325 77.1182 19.3167 76.3277C15.957 74.7017 9.79456 71.1713 8.23149 76.7588C7.84521 78.7172 8.66268 80.2982 9.69575 81.7265C9.06693 84.5652 9.52508 87.7632 11.2768 90.1258C10.2078 95.7223 16.7385 102.289 20.8977 103.493C29.288 105.918 36.0164 102.226 38.379 96.944C45.4757 105.469 55.5009 111.227 66.8108 112.494C62.5797 111.03 59.0044 107.769 56.7317 103.466C61.367 105.397 66.5054 106.475 71.9312 106.475C77.3571 106.475 82.3607 105.424 86.9421 103.538C84.7232 107.697 81.2827 110.877 77.1954 112.377C88.1009 110.913 97.7668 105.262 104.675 97.0159C107.073 102.262 113.784 105.9 122.129 103.493C126.279 102.289 132.81 95.7223 131.75 90.1258C133.502 87.7632 133.96 84.5652 133.331 81.7265H133.313ZM97.3356 18.5928C98.2968 18.2244 99.3928 18.3322 100.192 19.2216C101.531 20.7308 102.528 23.5874 102.752 26.471C102.986 29.4085 102.618 31.9148 102.339 33.3521C102.339 33.3701 102.339 33.3881 102.321 33.415C102.043 33.1186 101.755 32.8401 101.468 32.5616C98.1531 29.3366 94.3442 26.6327 90.185 24.5935C91.8559 22.6532 94.47 20.0121 97.3446 18.5928H97.3356ZM97.7219 36.5501C98.6112 37.4035 99.4646 38.2839 100.291 39.1912C101.037 40.0266 101.773 40.898 102.456 41.7873C98.1172 45.4704 93.7423 47.294 86.6725 49.2523C85.6844 48.0306 84.8131 46.8718 84.0585 45.7938C89.6461 44.1589 94.8114 39.5505 97.7219 36.5501ZM70.6016 48.1744C74.3476 48.1744 76.6294 47.7072 79.9891 46.8538C79.3693 48.1834 78.7584 49.6386 78.1745 51.2107C75.7131 51.6239 73.9345 51.8934 71.6977 51.9922C71.5449 51.9922 71.3922 52.0012 71.2485 52.0102C71.1048 52.0102 70.9609 52.0192 70.8172 52.0192C70.6735 52.0192 70.5208 52.0192 70.3681 52.0282C70.2153 52.0282 70.0627 52.0282 69.91 52.0282C69.7573 52.0282 69.5956 52.0282 69.4339 52.0282C69.2991 52.0282 69.1553 52.0282 69.0296 52.0282C68.8948 52.0282 68.7691 52.0282 68.6344 52.0282C68.3739 52.0282 68.1224 52.0192 67.8798 52.0102C65.2298 51.9293 63.3073 51.6419 60.5315 51.1658L60.4417 50.7615L60.1003 49.2613L59.8578 47.7342C59.7949 47.294 59.7411 46.8628 59.6872 46.4226C63.4781 47.5455 66.2807 48.1564 70.6016 48.1564V48.1744ZM55.2944 45.2189C55.2944 45.3626 55.2944 45.5154 55.3124 45.6591C55.3213 46.2071 55.3483 46.746 55.4022 47.285L55.5548 48.92C55.5907 49.1715 55.6357 49.423 55.6806 49.6656C55.5728 49.7824 55.465 49.8991 55.3482 50.0249C48.3503 48.5157 43.9127 47.1862 39.3223 44.0152C39.9421 42.9372 40.6427 41.8951 41.4063 40.907C42.1789 39.9278 43.0053 38.9936 43.8947 38.1312C46.5716 41.419 49.6799 43.2606 55.2854 45.2099L55.2944 45.2189ZM39.6276 26.48C39.8522 23.5964 40.8493 20.7397 42.1878 19.2306C42.9873 18.3323 44.0743 18.2334 45.0445 18.6017C48.0359 20.075 50.7578 22.8957 52.4197 24.854C47.8562 27.1717 43.715 30.2889 40.2026 34.0348C39.9151 32.8131 39.3582 29.9385 39.6276 26.48ZM41.8016 35.1488C42.2238 35.8405 42.655 36.4873 43.0862 37.0801C42.107 38.0144 41.1998 39.0295 40.3643 40.1075C39.5918 41.1046 38.8821 42.1467 38.2353 43.2426C37.7143 42.8473 37.1843 42.4341 36.6453 41.985C38.1634 39.5326 39.8882 37.2418 41.8016 35.1577V35.1488ZM35.9805 96.5308C33.1059 102.055 23.2244 99.8366 25.048 93.2969C26.2697 89.9821 30.8691 90.1438 31.5877 93.6292C31.6416 93.8808 31.8124 94.0964 32.0639 94.1593C33.4203 94.5276 32.6387 89.8024 28.6322 89.2814C25.7486 89.1377 24.4731 90.5929 23.7185 92.3267C22.2093 95.7762 24.1766 101.022 29.4408 101.849C23.0717 103.825 14.9689 100.412 13.271 92.183C14.5377 93.0364 17.1607 94.2042 18.9394 94.3659C19.155 94.3838 19.2449 94.0964 19.0473 93.9976C16.2265 92.6501 11.5373 90.5031 11.2948 86.1373C11.196 85.2659 11.2139 84.3945 11.3486 83.5411C11.8696 84.7718 18.4723 88.2573 20.26 87.898C20.4935 87.8531 20.5025 87.5117 20.269 87.4488C16.7655 86.5325 6.91988 79.0406 10.5221 76.1929C11.2318 75.636 12.7051 75.5192 13.5674 75.7976C17.8075 77.19 22.0566 80.1545 26.0811 81.7535C27.5812 82.3104 29.2252 83.065 30.7792 83.9993C32.3064 87.9159 34.3276 91.5721 36.7711 94.86C36.5824 95.3989 36.3219 95.9469 35.9895 96.5039L35.9805 96.5308ZM85.5048 64.8292C81.2468 66.0778 78.0757 70.9018 78.0757 76.66C78.0757 83.3705 82.3786 88.8053 87.6877 88.8053C92.9967 88.8053 97.2997 83.3705 97.2997 76.66C97.2997 73.2823 96.2127 70.2281 94.452 68.0272C96.2037 69.0423 97.6411 70.5066 98.6382 72.3122C100.722 76.0941 100.614 81.5738 97.9375 86.9098C101.71 83.083 102.86 78.7801 102.294 74.9442C102.564 74.8544 102.842 74.7466 103.139 74.6298C103.489 74.4861 103.821 74.3244 104.127 74.1537C103.381 85.1222 97.2817 94.6084 88.4153 100.034C83.4027 103.107 77.5187 104.867 71.2125 104.867C65.5531 104.867 60.2261 103.439 55.5728 100.924C45.7811 95.6415 38.9539 85.5534 38.2802 73.8124C38.7473 74.0998 39.2683 74.3783 39.8522 74.6298C40.1397 74.7466 40.4182 74.8544 40.6967 74.9442C40.1308 78.7801 41.2806 83.083 45.0535 86.9098C42.3765 81.5648 42.2687 76.0941 44.3528 72.3122C45.3499 70.5066 46.7963 69.0423 48.539 68.0272C46.7783 70.2281 45.6913 73.2823 45.6913 76.66C45.6913 83.3705 49.9943 88.8053 55.3034 88.8053C60.6124 88.8053 64.9153 83.3705 64.9153 76.66C64.9153 70.9018 61.7442 66.0778 57.4862 64.8292C52.5544 62.5385 47.2813 64.0656 43.4725 67.3714C41.1997 69.3387 40.3643 70.8749 38.2173 71.7911C38.2173 69.3028 38.5137 66.8773 39.0437 64.5507C41.9183 62.9517 45.0715 60.9395 48.3054 58.4062C51.5843 55.846 54.3512 53.205 56.6598 50.6986C56.7766 50.5819 56.8844 50.4561 56.9922 50.3393C56.9473 50.0878 56.9024 49.8363 56.8664 49.5937L56.7137 47.9588C56.6508 47.4198 56.6328 46.8808 56.6239 46.3328C56.6239 46.1891 56.6239 46.0364 56.6149 45.8837C56.5969 45.4974 56.5879 45.1021 56.5969 44.7069C56.6328 43.6289 56.6509 42.5419 56.7766 41.4729C57.2168 37.1879 58.4115 32.9479 60.5855 29.2648C59.2829 33.3072 58.3936 37.4215 58.2319 41.5717C58.1421 43.1977 58.187 44.8326 58.3487 46.4406C58.3936 46.8808 58.4474 47.312 58.5103 47.7522L58.7619 49.2793L59.1032 50.7795L59.193 51.1837L59.2649 51.5251L59.4716 52.2707L59.8668 53.7619C60.9537 57.6426 62.8313 61.3078 65.3016 64.5597C67.9517 67.7757 71.3114 70.8569 75.4167 73.462C75.4347 69.1142 75.9017 63.4637 77.6086 57.0947C78.1745 54.9926 78.8123 53.0253 79.495 51.2197C80.0789 49.6476 80.6898 48.1923 81.3096 46.8628C81.5342 46.3598 81.7678 45.8747 81.9923 45.4076C82.2169 45.7489 82.4594 46.1082 82.7199 46.4676C83.4655 47.5366 84.3369 48.7044 85.3251 49.9261C87.481 52.5582 90.2299 55.4507 93.6705 58.2625C97.0661 61.0383 100.408 63.1224 103.408 64.7034C103.893 66.8953 104.163 69.177 104.19 71.5216C102.438 70.5874 101.558 69.1591 99.5006 67.3714C95.6917 64.0656 90.4186 62.5385 85.4868 64.8292H85.5048ZM94.7574 82.2026C94.7574 83.4333 93.7244 84.4215 92.4578 84.4215C91.1911 84.4215 90.158 83.4244 90.158 82.2026C90.158 80.9809 91.1911 79.9838 92.4578 79.9838C93.7244 79.9838 94.7574 80.9809 94.7574 82.2026ZM89.2687 73.1386C89.2687 75.8426 87.3014 78.0345 84.8669 78.0345C82.4325 78.0345 80.4652 75.8426 80.4652 73.1386C80.4652 70.4347 82.4415 68.2428 84.8669 68.2428C87.2924 68.2428 89.2687 70.4347 89.2687 73.1386ZM50.5512 79.9838C51.8179 79.9838 52.8509 80.9809 52.8509 82.2026C52.8509 83.4244 51.8179 84.4215 50.5512 84.4215C49.2846 84.4215 48.2515 83.4244 48.2515 82.2026C48.2515 80.9809 49.2846 79.9838 50.5512 79.9838ZM53.7403 73.1386C53.7403 70.4347 55.7075 68.2428 58.142 68.2428C60.5764 68.2428 62.5437 70.4347 62.5437 73.1386C62.5437 75.8426 60.5764 78.0345 58.142 78.0345C55.7075 78.0345 53.7403 75.8426 53.7403 73.1386ZM103.453 40.9249C102.752 40.0266 102.025 39.1553 101.27 38.3108C100.435 37.3766 99.5455 36.4693 98.6292 35.5979C99.6084 34.5289 100.165 33.8282 100.174 33.8282C100.453 34.1157 100.731 34.4032 101.001 34.6906C102.411 36.1908 103.723 37.7988 104.926 39.4966C104.432 39.9907 103.938 40.4758 103.453 40.916V40.9249ZM122.758 87.9249C124.555 88.2843 131.157 84.7988 131.669 83.5681C131.804 84.4215 131.822 85.2929 131.723 86.1642C131.481 90.5301 126.791 92.677 123.971 94.0245C123.773 94.1143 123.863 94.4108 124.079 94.3928C125.857 94.2221 128.48 93.0633 129.747 92.2099C128.049 100.43 119.955 103.852 113.577 101.876C118.832 101.049 120.8 95.8032 119.3 92.3536C118.545 90.6199 117.269 89.1736 114.386 89.3083C110.379 89.8294 109.598 94.5545 110.954 94.1862C111.197 94.1233 111.376 93.8987 111.43 93.6562C112.14 90.1707 116.739 90.009 117.97 93.3238C119.794 99.8636 109.912 102.073 107.037 96.5578C106.723 96.0278 106.481 95.5157 106.292 95.0037C108.78 91.6619 110.837 87.9609 112.382 83.9723C113.892 83.074 115.491 82.3464 116.946 81.8074C120.97 80.2084 125.219 77.2439 129.459 75.8515C130.322 75.5641 131.786 75.6809 132.505 76.2468C136.116 79.0945 126.261 86.5864 122.758 87.5027C122.524 87.5656 122.533 87.898 122.767 87.9519L122.758 87.9249Z"/>
  <path d="M77.6082 89.0843C76.9255 91.7074 73.404 92.6596 71.4906 90.7462C69.5952 92.6686 66.0469 91.7164 65.3731 89.0843C65.2653 88.7339 65.4629 88.3656 65.8133 88.2578C66.1636 88.159 66.532 88.3566 66.6398 88.707C67.1339 90.6563 69.8737 91.0516 70.9248 89.3538C70.9697 89.2819 71.0235 89.228 71.0954 89.1831C71.0954 89.1831 71.0774 89.1921 71.0774 89.2011C71.0864 89.1921 71.1044 89.1741 71.1134 89.1651C71.1134 89.1651 71.1493 89.1472 71.1582 89.1382C71.4188 88.9945 71.7871 89.0394 71.9757 89.2909C73.0178 91.0336 75.8026 90.6923 76.3147 88.707C76.5393 87.8716 77.8418 88.2578 77.5902 89.0843H77.6082Z"/>
  <path d="M71.121 89.1562C71.121 89.1562 71.0945 89.1738 71.0858 89.1914C71.0858 89.1914 71.0946 89.1738 71.1034 89.1738C71.1034 89.1738 71.1122 89.165 71.121 89.1562Z"/>
  <path d="M71.121 89.1562C71.121 89.1562 71.0945 89.1738 71.0858 89.1914C71.0858 89.1914 71.0946 89.1738 71.1034 89.1738C71.1034 89.1738 71.1122 89.165 71.121 89.1562Z"/>
</svg>