<svg viewBox="0 0 313 69" fill="currentcolor" xmlns="http://www.w3.org/2000/svg">
<title>MeeMeows (Logo)</title>
<g clipPath="url(#clip0_77_458)">
<path d="M311.8 54.2821C311.765 54.2207 311.721 54.1682 311.686 54.1156C312.422 52.031 312.299 49.7098 311.266 47.7127C310.302 45.8557 308.655 44.4981 306.667 43.8061C306.159 39.8119 302.874 36.9039 298.714 36.9039H298.705C298.293 36.8951 297.899 36.9126 297.505 36.9652C297.006 36.4221 296.428 35.9404 295.779 35.555C293.546 34.2411 290.795 34.1447 288.395 35.2221C288.019 34.4425 287.607 33.6893 287.117 32.9798C288.702 32.209 290.147 31.1053 291.33 29.6776C295.21 24.9826 294.719 18.5622 290.261 14.2001C286.267 10.022 280.293 8.45409 274.302 10.0132C267.986 11.6512 262.976 16.2935 261.522 21.8469C261.408 22.2761 261.312 22.7666 261.233 23.3009C261.198 23.3009 261.163 23.2834 261.119 23.2746L260.638 23.2133L260.156 23.2308C257.87 23.3272 255.846 24.2994 254.454 25.9724C253.516 27.0936 253.008 28.3637 252.746 29.5812C251.624 28.8279 250.293 28.3462 248.83 28.2323C248.164 28.1797 247.516 28.1973 246.894 28.2936C246.798 26.5768 246.246 24.7899 244.976 23.3184C243.286 21.3739 240.772 20.4979 238.091 20.9096C235.709 21.2775 233.843 22.6527 232.442 24.2907C229.14 20.5593 224.287 18.5709 219.601 18.5184H219.408C215.326 18.5184 211.218 19.9374 208.083 22.6965C207.942 22.5038 207.811 22.3111 207.662 22.1272C204.053 17.8264 199.937 17.003 197.09 17.0644C194.042 17.1432 190.88 18.352 187.998 20.4454C187.788 16.9154 187.017 13.3592 185.282 9.85556C183.767 6.66722 181.148 4.56502 177.89 3.91684C170.804 2.49786 162.815 8.56796 158.681 12.3081C158.103 12.8337 157.586 13.4468 157.008 14.1826C153.066 8.05117 147.723 3.68911 141.373 1.46428C138.482 0.36938 135.487 0.710988 132.929 2.4453C128.935 5.16065 126.771 11.1519 125.597 16.4512C125.44 16.3111 125.3 16.1534 125.133 16.022C121.043 12.9388 115.831 12.5271 110.847 14.9271C108.228 16.1884 105.898 18.1593 104.059 20.4279C103.489 19.6483 102.859 18.9125 102.105 18.2731C97.6645 14.4716 91.314 14.2789 85.1126 17.7651L84.7096 18.0191C84.0001 18.5009 83.3344 19.0439 82.7038 19.622C81.2585 13.1052 78.1665 7.36796 72.6833 5.34459C68.5928 3.82925 62.0672 4.03071 54.2102 13.5081C53.1153 14.7519 52.2569 16.1622 51.5036 17.4848C50.2686 16.0045 48.8584 14.568 47.2554 13.1315C44.943 10.968 37.1561 6.08912 31.2699 6.54459C28.7385 6.7373 26.5663 7.86723 25.1648 9.72417L24.7619 10.3373C21.6261 15.8468 20.6714 21.5053 20.2422 25.9724C19.8042 26.0337 19.3662 26.1038 18.9108 26.1651C13.5677 26.9447 6.91946 27.9082 2.07564 32.9973L1.62016 33.5404C-0.534595 36.4659 -0.543354 40.6791 1.59388 43.5521C2.37345 44.5944 3.36323 45.3915 4.46689 45.8995C4.23039 47.1609 4.22163 48.5536 4.5282 50.1039L4.86981 51.8558L6.14865 53.0996C6.99829 53.9229 9.3983 55.8324 12.972 55.4032C12.4027 58.1711 12.9195 61.1142 14.5837 63.1814C15.8363 64.7317 17.8509 65.8617 20.2159 65.8617C21.5998 65.8617 23.1152 65.4763 24.6655 64.5653L25.3225 64.1799L25.8568 63.6369C28.0991 61.3332 30.5692 58.9682 33.5473 56.2616C36.0437 57.0587 38.689 56.7521 40.9138 55.3682C43.6817 53.6426 45.2759 50.4631 45.0744 46.9068C44.7678 43.2893 43.27 40.4075 41.9386 37.8674C41.5182 37.0528 41.089 36.2469 40.7298 35.4236L40.4583 34.8017L40.1693 34.425C39.9678 34.0221 39.7751 33.4177 39.5912 32.6907C41.1941 34.7141 43.2087 36.7199 46.0729 38.0075L46.6073 38.2177C53.2993 40.4426 60.5431 37.8849 63.1095 32.4104C63.7314 31.0878 64.476 29.7914 65.4132 28.4513C65.3782 31.0177 64.9665 33.698 64.6073 36.0718C63.8365 41.1521 63.1708 45.5404 65.8336 48.9302C67.1913 50.6558 69.2147 51.7244 71.5359 51.9258L71.8599 51.9521H72.184C76.914 51.8207 79.5943 49.3594 81.1359 46.2061C83.0717 48.247 85.5242 49.7798 88.406 50.6032C89.5359 50.9623 90.8849 51.1463 92.3476 51.1463C97.1827 51.1463 103.174 49.193 106.511 45.7244C107.641 46.6178 108.876 47.4061 110.26 47.9842C112.371 48.8689 114.596 49.2893 116.83 49.2893C121.262 49.2893 125.711 47.5901 129.268 44.4543C129.916 45.2689 130.643 45.9959 131.466 46.5828C133.927 48.3433 136.897 48.8163 139.831 47.9141L140.278 47.7565C144.106 46.2149 146.173 42.5886 145.516 38.3666C145.157 36.3871 144.657 34.4601 144.184 32.6031C143.527 30.0192 142.906 27.6104 142.695 25.368C142.8 25.587 142.914 25.8148 143.028 26.0425C144.149 28.3111 145.419 30.8776 147.434 33.0849L147.89 33.5841L148.45 33.9608C158.742 40.9594 165.399 32.3754 168.596 28.2498C169.043 27.6805 169.498 27.0848 169.971 26.5155C169.858 27.4527 169.7 28.5301 169.498 29.7301L169.306 30.8075V31.2717C169.244 31.8323 168.701 33.4703 168.333 34.5652C166.844 39.0061 164.357 46.4426 170.383 49.9463C171.828 50.7784 173.361 51.1901 174.894 51.1901C176.006 51.1901 177.11 50.9711 178.179 50.5244C180.298 49.6397 181.823 48.0193 182.944 46.3025C186.009 50.5419 190.696 52.9945 195.785 52.9945C196.293 52.9945 196.801 52.9682 197.309 52.9244C199.569 52.7667 204.763 51.7331 208.31 48.8163C208.88 49.2893 209.475 49.7273 210.123 50.1215C212.856 51.812 216.053 52.6529 219.268 52.6529C222.29 52.6529 225.329 51.9083 228.036 50.4105C228.964 49.8937 229.797 49.2893 230.585 48.6324C232.503 51.847 235.586 53.8967 239.169 54.2821C241.245 54.501 243.391 54.1419 245.388 53.2923C245.475 53.3711 245.554 53.4324 245.624 53.4937C246.579 54.2645 248.086 55.3594 250.179 55.9375C251.055 56.1828 252.089 56.3492 253.236 56.3492C255.286 56.3492 257.729 55.7799 260.392 54.1069C263.362 57.7945 268.083 60.6763 272.786 60.6763C273.163 60.6763 273.531 60.6587 273.908 60.6237C276.246 60.5974 278.436 60.0544 280.433 59.1609C280.933 60.5361 281.607 61.8675 282.483 63.0938C285.128 66.7639 289.008 68.8223 293.16 68.8223C293.791 68.8223 294.43 68.7697 295.079 68.6734C297.347 68.3142 299.301 67.4208 300.912 66.177C302.016 66.6763 303.233 66.9653 304.547 66.9741C307.709 66.9303 310.468 65.3361 311.922 62.7259C313.376 60.1244 313.315 56.9011 311.774 54.3259L311.8 54.2821ZM268.985 38.3579C269.94 39.1287 270.886 39.8907 271.823 40.6265L272.997 41.555C274.048 42.3433 273.987 42.9127 273.96 43.1229C273.925 43.482 273.75 43.8061 273.575 44.0251C273.496 43.9375 273.408 43.8236 273.321 43.6922C272.506 41.4937 270.789 39.8032 268.932 38.8046C268.95 38.6557 268.968 38.5068 268.985 38.3491V38.3579Z"/>
<path d="M309.846 55.4482C309.619 55.0628 309.321 54.7387 309.023 54.4233C310.074 52.6978 310.171 50.543 309.242 48.7562C308.322 46.9956 306.536 45.8744 304.407 45.6379C304.442 45.3751 304.486 45.1211 304.486 44.8496C304.486 41.5561 301.981 39.1736 298.635 39.1736C297.908 39.1474 297.225 39.305 296.576 39.5415C296.121 38.7094 295.464 38.0087 294.614 37.5094C292.836 36.4583 290.568 36.4933 288.711 37.597C288.176 37.9123 287.73 38.3065 287.335 38.7444C286.573 36.0904 285.172 33.6816 283.201 31.8422C285.733 31.4218 288.045 30.0641 289.569 28.2159C292.188 25.0451 292.88 19.9385 288.614 15.7604C285.198 12.1866 280.057 10.8552 274.871 12.2041C269.344 13.6406 264.965 17.6436 263.721 22.4086C263.362 23.7925 263.3 25.1852 263.484 26.5517C262.459 25.8597 261.443 25.5969 260.83 25.5181L260.541 25.483H260.252C258.623 25.5619 257.186 26.2451 256.205 27.4188C254.541 29.4159 254.673 32.105 254.97 34.2247L255.023 34.5225C255.487 36.5196 254.944 38.5605 254.217 40.032V39.8744V39.7167C254.182 39.27 254.164 38.8408 254.147 38.4291C254.112 37.4831 254.077 36.5021 253.91 35.486C253.586 32.7619 251.432 30.7123 248.629 30.4758C246.772 30.3269 245.046 30.9926 243.864 32.2364C243.951 32.0174 244.048 31.8072 244.135 31.5882L244.275 31.2115C244.845 29.3371 244.871 26.6743 243.242 24.7911C242.077 23.4422 240.316 22.8465 238.424 23.1356C235.569 23.5823 233.589 26.0787 232.486 28.2422C229.867 23.3808 224.699 20.8232 219.548 20.7619C215.081 20.7794 210.518 22.6976 207.706 26.4903C207.268 25.4743 206.681 24.4933 205.901 23.556C202.871 19.9473 199.463 19.2553 197.125 19.3078C193.183 19.4042 188.97 21.7779 185.615 25.6933C186.009 20.7356 185.615 15.664 183.198 10.7939C181.665 7.56179 179.212 6.46689 177.417 6.10776C171.084 4.84644 163.244 11.1706 160.17 13.956C159.548 14.5166 158.944 15.3049 158.164 16.3122C157.796 16.7852 157.236 17.521 156.675 18.1779C152.908 10.9866 147.338 5.9501 140.523 3.55885C138.351 2.73548 136.091 2.9895 134.164 4.30338C129.557 7.4304 127.691 16.137 126.946 21.6203C126.193 20.2626 125.133 18.9662 123.723 17.81C120.333 15.2523 115.98 14.937 111.793 16.9429C108.324 18.6071 105.408 21.6203 103.761 24.8874C103.156 22.9954 102.105 21.2611 100.59 19.9735C98.8206 18.4582 93.8717 15.4012 86.1899 19.7195L85.9446 19.8684C84.0089 21.1823 82.4059 22.9429 81.2059 24.975C80.4702 17.4159 77.7636 9.62019 71.8599 7.44792C66.8759 5.61725 61.4978 8.15741 55.9533 14.8932C54.7795 16.1983 53.9036 17.7487 53.054 19.2553C52.6248 20.0173 52.1693 20.8232 51.7051 21.5239C50.1284 19.1852 48.1576 16.9691 45.7576 14.8407C43.7342 12.8611 36.4028 8.37639 31.4101 8.77931C29.0101 8.96325 27.6611 10.1195 26.9517 11.0567L26.7064 11.4246C24.2889 15.6553 22.9662 20.4202 22.4319 26.6568C22.3794 27.0422 22.3443 27.4626 22.3268 27.8831C21.337 28.0582 20.2859 28.2159 19.2085 28.3736C13.953 29.1356 7.99681 30.0028 3.69606 34.5225L3.42452 34.8466C1.84787 36.9838 1.83911 40.0583 3.38949 42.1517C4.36175 43.4656 5.81578 44.1926 7.40119 44.2539C6.62162 45.743 6.32381 47.5036 6.73549 49.6233L6.93695 50.6744L7.699 51.4189C8.899 52.5839 12.2538 54.8613 17.5969 50.8846C17.7545 50.762 17.9823 50.6219 18.2538 50.4642C17.7545 51.0598 17.2903 51.6642 16.8436 52.2949C14.645 54.8876 14.3822 59.3022 16.318 61.711C17.1239 62.7095 18.4728 63.5416 20.1721 63.5416C21.1618 63.5416 22.2743 63.2613 23.4743 62.5606L23.8684 62.3241L24.1925 62C26.7239 59.3985 29.5356 56.727 33.048 53.5649C35.2203 54.6861 37.6816 54.6248 39.67 53.381C41.7634 52.0759 42.9284 49.7372 42.7707 47.0394C42.5079 43.8773 41.1152 41.2145 39.8889 38.8583C39.4422 37.9999 38.9867 37.1415 38.6101 36.2656L38.2247 35.5999C37.1648 33.9882 36.1751 27.8305 36.4729 24.8173C37.524 25.8159 38.4437 27.156 39.4159 28.5575C41.2641 31.2203 43.3576 34.251 46.9751 35.8714L47.2992 35.994C52.9138 37.851 58.9401 35.8276 61.0248 31.378C62.6015 28.0232 64.8175 25.1852 66.981 22.7502C68.2686 26.9546 67.4803 32.105 66.8409 36.3444C66.1226 41.0919 65.5533 44.8408 67.603 47.4598C68.2862 48.327 69.5562 49.4043 71.711 49.597L71.9037 49.6146H72.0964C77.4132 49.4656 79.4979 45.4189 80.3651 41.1532C82.1081 44.6831 85.13 47.2759 88.9228 48.327C89.86 48.6598 91.0162 48.8087 92.2863 48.8087C96.771 48.8087 102.666 46.8554 105.346 43.5882C105.679 43.1766 105.951 42.7474 106.178 42.3094C107.518 43.7985 109.156 45.016 111.11 45.8306C112.932 46.5926 114.867 46.9605 116.803 46.9605C121.384 46.9605 126 44.8934 129.346 41.1094L129.609 40.759C130.432 42.3444 131.457 43.7372 132.762 44.6744C134.628 46.0145 136.888 46.3737 139.13 45.6817L139.402 45.5853C142.257 44.4291 143.738 41.8364 143.256 38.7182C142.906 36.8174 142.424 34.9254 141.96 33.1035C140.689 28.1283 139.489 23.4159 141.11 19.1239C142.774 20.3764 143.843 22.5312 145.052 24.975C146.164 27.2086 147.303 29.521 149.098 31.5006L149.703 32.0261C158.225 37.8247 163.577 30.9312 166.774 26.8057C168.307 24.8349 169.893 22.7852 171.504 21.9619C171.846 21.7867 172.109 21.664 172.319 21.5852C172.555 22.6451 172.555 24.9838 171.714 30.0553L171.592 30.8086L171.548 31.3692C171.548 31.9911 170.891 33.9532 170.462 35.2408C169.034 39.5152 167.072 45.3576 171.487 47.924C172.573 48.5459 173.729 48.8613 174.868 48.8613C175.682 48.8613 176.497 48.7036 177.268 48.3708C180.412 47.0481 182.059 43.4393 182.795 41.2846C183.075 42.0204 183.408 42.7474 183.811 43.4569C186.395 48.0554 190.783 50.6832 195.609 50.6832C196.074 50.6832 196.538 50.6569 197.002 50.6131C199.113 50.4905 205.464 49.2817 208.249 45.5328C209.116 46.5313 210.115 47.4072 211.28 48.1255C213.653 49.5883 216.43 50.3241 219.233 50.3241C221.869 50.3241 224.532 49.6671 226.897 48.362C228.64 47.3985 230.094 46.1372 231.251 44.6481C231.505 45.4014 231.802 46.1372 232.161 46.8379C233.703 49.816 236.261 51.6379 239.37 51.962C241.525 52.1985 243.759 51.6554 245.756 50.508C246.369 51.1299 246.886 51.5591 247.026 51.673C247.884 52.3737 249.093 53.2321 250.757 53.6876C251.449 53.8803 252.264 54.0204 253.183 54.0204C255.303 54.0204 257.966 53.2759 260.935 50.8496C263.221 54.8087 268.039 58.3562 272.743 58.3562C273.084 58.3562 273.417 58.3387 273.75 58.2949C276.824 58.2861 279.601 57.3577 281.878 55.7285C282.185 57.8044 282.991 59.8978 284.305 61.711C286.512 64.7767 289.727 66.4935 293.152 66.4935C293.668 66.4935 294.185 66.4584 294.702 66.3796C297.163 65.9942 299.169 64.8906 300.623 63.3314C301.683 64.146 303.014 64.6453 304.503 64.654C306.842 64.619 308.865 63.4716 309.925 61.5708C310.985 59.6701 310.941 57.3226 309.811 55.4394L309.846 55.4482ZM126.666 31.7721C126.771 31.6057 126.85 31.4305 126.938 31.2641C126.964 31.4831 126.999 31.6933 127.034 31.9123C126.911 31.8685 126.797 31.7984 126.666 31.7721ZM276.106 43.9386C275.721 45.4189 274.582 46.4175 273.697 46.5313C272.646 46.6627 271.744 45.4977 271.245 44.7182C270.483 42.3882 268.319 40.7415 266.401 40.2422C266.857 37.8773 267.014 35.4773 266.821 33.3926C267.137 33.7429 267.443 34.0845 267.794 34.4262C269.581 35.9678 271.429 37.4393 273.216 38.8583L274.346 39.7517C276.316 41.232 276.386 42.8525 276.097 43.9386H276.106Z" fill="white"/>
<path d="M58.5199 17.1878C56.1287 19.8418 54.7798 24.747 51.6352 26.3149C51.0834 26.3149 50.3038 25.7718 50.0148 25.2463C48.3068 22.1718 46.0031 19.6053 43.4016 17.2842C41.1855 15.1207 31.9884 10.0754 29.7023 13.1148C27.2147 17.4769 26.2687 22.2068 25.8395 27.147C25.6555 28.3996 25.9358 30.1514 25.2176 30.7645C19.0949 32.3149 11.0365 31.7894 6.20143 36.8697C4.95763 38.5602 5.98245 41.5909 8.49633 40.6887C13.8307 38.2624 19.2526 36.4317 25.1913 36.6157C27.1709 36.3967 27.3461 37.9996 25.3315 38.5252C20.7241 40.6274 8.76787 42.0639 10.1168 48.9661C11.7635 50.5602 13.9708 49.3515 15.5212 48.204C17.3781 46.7325 28.8001 41.4244 29.6935 44.4901C29.7461 44.9106 29.1417 45.5675 28.6775 45.8741C25.1475 48.204 21.9942 50.9544 19.5592 54.4143C17.6672 56.4727 18.0526 61.8158 21.784 59.6172C24.7796 56.5428 27.9592 53.5734 31.1738 50.6916C32.1899 49.7807 33.2059 49.7281 34.5198 50.4639C36.9724 51.8391 39.5651 50.1223 39.4074 47.3281C39.1096 43.7982 36.8936 40.8025 35.5096 37.6317C33.2235 34.601 30.3767 16.1104 38.1023 21.6988C42.0352 24.8871 43.6381 30.6331 48.3943 32.7704C52.1958 34.0317 56.5666 32.928 57.9594 29.9412C59.8601 25.8944 62.5842 22.4959 65.5711 19.255C66.9638 17.7484 68.8295 17.9148 69.5127 19.8156C74.4704 30.4842 65.6499 45.6464 72.0266 46.1982C78.7711 46.023 77.1419 34.5835 78.0179 30.0813C78.2368 15.9002 71.5536 1.36 58.4937 17.1791L58.5199 17.1878Z"/>
<path d="M162.474 16.5044C160.845 17.976 156.421 25.7279 154.617 21.7162C151.551 14.9015 146.515 9.27814 139.332 6.76425C132.614 4.20658 129.995 21.8125 129.934 26.3848C130.047 30.8169 131.729 44.4374 138.185 42.4403C139.551 41.8885 140.182 40.8111 139.963 39.3484C138.579 31.798 134.847 24.0286 138.579 16.557C139.139 15.1643 140.085 14.7001 141.452 15.3745C147.093 17.8621 147.864 25.0096 151.683 29.214C160.687 35.3367 163.499 22.268 169.963 18.957C178.179 14.5774 175.718 26.9804 175.017 31.36C175.034 34.671 170.147 43.1761 173.239 44.9717C176.883 47.0564 179.204 41.9936 179.948 39.1732C181.534 30.3177 184.389 20.8402 180.141 12.2738C176.716 5.05622 166.196 13.1409 162.483 16.5044H162.474Z"/>
<path d="M279.356 33.1558C277.14 31.4653 275.012 29.6609 272.883 27.8477C268.547 22.9076 278.016 17.4856 282.08 20.9806C284.936 23.3806 281.818 23.801 279.689 23.2667C277.289 22.8287 275.695 26.0258 277.885 27.4185C283.701 31.439 292.241 24.1076 286.127 18.1075C277.71 9.29582 259.289 21.5587 270.028 31.8332C272.095 33.6288 274.258 35.3106 276.396 37.0098C285.164 43.6055 273.996 56.3764 268.074 46.0581C267.847 44.8143 266.515 43.7194 265.438 43.4916C258.746 45.3748 267.155 55.8158 273.566 54.8785C285.207 55.0099 288.361 39.1383 279.339 33.1383L279.356 33.1558Z"/>
<path d="M260.384 28.8985C257.852 29.0036 258.08 31.9204 258.334 33.7423C260.305 42.1774 250.433 51.7687 250.792 39.9263C250.705 38.4285 250.731 37.1759 250.521 35.9584C250.276 33.3482 246.404 33.1292 245.738 35.6431C245.222 37.7102 244.766 40.1015 243.4 41.757C241.324 43.9205 238.556 43.9205 238.924 40.3117C238.766 36.7818 239.598 33.4445 241 30.2299C241.508 28.5657 241.175 26.1744 238.933 26.5248C237.023 26.8226 235.403 29.6343 234.921 31.2635C233.572 35.7832 232.959 40.9424 235.219 45.2957C237.741 50.1658 243.461 49.2636 246.641 45.4095C246.062 46.1103 248.76 48.6855 249.207 49.0446C249.969 49.6577 250.74 50.157 251.703 50.4286C254.436 51.1906 257.046 49.7541 259.079 48.0198C263.292 45.1643 265.884 29.6168 260.384 28.9073V28.8985Z"/>
<path d="M200.418 40.9158C197.502 41.8267 191.309 43.0443 191.064 38.3055C192.43 38.1479 193.744 38.3844 195.102 38.3493C195.207 38.3493 195.312 38.3493 195.417 38.3406C201.872 38.0077 208.433 31.8938 203.291 25.7624C198.176 19.666 191.239 23.8529 187.428 28.8632C181.919 36.1245 187.262 48.2122 196.853 47.2224C200.121 47.0384 207.811 44.7085 205.928 40.4691C204.667 38.3756 202.118 40.0924 200.41 40.9158H200.418ZM199.157 28.3989C202.38 30.7814 197.204 33.5318 194.839 33.4442C194.751 33.4442 194.672 33.4354 194.593 33.4267C194.357 33.3917 191.563 32.4719 191.668 32.2004C192.658 29.5289 196.161 26.1741 199.166 28.3989H199.157Z"/>
<path d="M122.953 35.7482C119.72 38.3058 113.177 40.3117 111.723 35.1788C120.202 36.8168 130.03 27.3656 121.7 20.551C115.104 15.5758 105.951 24.1072 105.776 30.0722C104.83 43.9467 119.169 47.5468 126.842 38.8664C128.847 35.7744 125.484 33.8474 122.953 35.7482ZM118.687 24.7028C121.779 27.243 116.821 30.4313 114.369 30.1511C114.044 30.116 111.539 29.3189 111.574 29.1963C112.398 26.6123 115.498 22.0751 118.687 24.6941V24.7028Z"/>
<path d="M87.9856 36.9749C88.7302 36.9486 89.4747 36.8873 90.228 36.8961C107.133 37.0099 102.307 14.5952 87.8893 22.6974C79.9885 28.0581 79.9272 42.2742 90.0878 45.1122C94.1171 46.5136 106.31 42.8786 103.095 37.4128C100.432 33.6814 92.6105 46.1545 87.9944 36.9661L87.9856 36.9749ZM93.8981 26.0259C98.9696 27.3223 94.0295 32.569 90.6572 31.9471C84.5258 32.2712 90.5521 24.8697 93.8981 26.0259Z"/>
<path d="M208.328 35.3283C207.688 50.9459 230.76 50.5167 230.848 35.6261C230.883 20.8494 208.617 19.9997 208.328 35.3283ZM213.172 35.6523C213.093 26.1749 226.451 27.3136 225.855 35.4947C226.056 44.2539 212.786 43.5181 213.172 35.6523Z"/>
<path d="M291.733 47.6871C280.6 47.6871 285.128 64.3996 294.212 63.0157C303.847 61.5003 299.721 47.363 291.733 47.6871Z"/>
<path d="M304.259 55.8599C300.44 55.8862 300.974 61.238 304.495 61.2555C308.393 61.203 308.191 55.7986 304.259 55.8599Z"/>
<path d="M303.768 48.9662C300.431 48.8173 299.966 53.7837 303.47 53.8713C307.289 54.0465 307.552 49.1238 303.768 48.9662Z"/>
<path d="M298.539 42.5812C295.517 42.4936 295.035 47.7929 298.285 47.7228C301.543 47.714 302.358 42.5724 298.539 42.5812Z"/>
<path d="M293.879 42.5976C293.993 38.9888 289.088 39.6195 289.201 42.8691C289.219 46.4078 293.931 45.9874 293.879 42.5976Z"/>
</g>
<defs>
<clipPath id="clip0_77_458">
<rect width="313" height="67.9624" fill="white" transform="translate(0 0.814453)"/>
</clipPath>
</defs>
</svg>
